<svg xmlns="http://www.w3.org/2000/svg" width="9.113" height="9.938" viewBox="0 0 9.113 9.938">
  <g id="box" transform="translate(-3.943 -2.488)" opacity="0.8">
    <path id="Path_2394" data-name="Path 2394" d="M12.5,9.221V5.667a.888.888,0,0,0-.444-.768L8.944,3.122a.889.889,0,0,0-.889,0L4.944,4.9a.888.888,0,0,0-.444.768V9.221a.888.888,0,0,0,.444.768l3.111,1.777a.889.889,0,0,0,.889,0l3.111-1.777a.888.888,0,0,0,.444-.768Z" transform="translate(0 0)" fill="none" stroke="#000" stroke-linecap="round" stroke-linejoin="round" stroke-width="1"/>
    <path id="Path_2395" data-name="Path 2395" d="M4.905,10.44l3.864,2.541,3.864-2.541" transform="translate(-0.269 -5.331)" fill="none" stroke="#000" stroke-linecap="round" stroke-linejoin="round" stroke-width="1"/>
    <path id="Path_2396" data-name="Path 2396" d="M18,23.071V18" transform="translate(-9.5 -11.145)" fill="none" stroke="#000" stroke-linecap="round" stroke-linejoin="round" stroke-width="1"/>
  </g>
</svg>
