<svg xmlns="http://www.w3.org/2000/svg" width="12.032" height="13.312" viewBox="0 0 12.032 13.312">
  <g id="Icon_feather-box" data-name="Icon feather-box" transform="translate(0.505 0.518)" opacity="0.8">
    <path id="Path_2394" data-name="Path 2394" d="M15.522,11.57v-4.9a1.224,1.224,0,0,0-.612-1.059L10.623,3.167a1.225,1.225,0,0,0-1.225,0L5.112,5.615A1.224,1.224,0,0,0,4.5,6.674v4.9a1.224,1.224,0,0,0,.612,1.059L9.4,15.076a1.225,1.225,0,0,0,1.225,0l4.286-2.448A1.224,1.224,0,0,0,15.522,11.57Z" transform="translate(-4.5 -3.003)" fill="none" stroke="#000" stroke-linecap="round" stroke-linejoin="round" stroke-width="1"/>
    <path id="Path_2395" data-name="Path 2395" d="M4.9,10.44l5.324,3.5,5.324-3.5" transform="translate(-4.718 -7.539)" fill="none" stroke="#000" stroke-linecap="round" stroke-linejoin="round" stroke-width="1"/>
    <path id="Path_2396" data-name="Path 2396" d="M18,24.987V18" transform="translate(-12.489 -12.693)" fill="none" stroke="#000" stroke-linecap="round" stroke-linejoin="round" stroke-width="1"/>
  </g>
</svg>
