<svg xmlns="http://www.w3.org/2000/svg" width="755.521" height="605" viewBox="0 0 755.521 605">
  <g id="DummyLogo" transform="translate(1400 -1288)">
    <g id="DummyLogo-2" data-name="DummyLogo" transform="translate(-1982.479 1049.255)">
      <path id="Path_17114" data-name="Path 17114" d="M957.093,708.874c-16.237-8.25-32.516-16.418-48.671-24.824a10.578,10.578,0,0,0-8.447-.8q-69.147,19.043-138.373,37.8c-1.537.417-3.219,1.967-5,.391-1.3-2.14-1.206-4.6-1.543-6.949-6.705-46.764-12.737-93.621-19.33-140.4a14.61,14.61,0,0,1-.056-5.788c.743-1.867,2.3-3.081,3.688-4.41,9.766-9.372,18.6-19.715,29.337-28.087,2.513-1.072,5.006-.222,7.45.208,5.4.95,10.958.759,16.248,2.394,7.87,4.729,16.067,8.934,23.509,14.378,7.612,8.908,13.687,18.921,20.316,28.524,22.032,31.918,44.307,63.669,66.179,95.7.175.258.417.43,1.107.689,1.431-5.767,1.979-11.637,2.889-17.421C911,631,915.089,601.645,919.652,572.362c1.082-6.944,2.176-13.9,3.124-20.864.424-3.115,1.921-4.96,5.228-5,9.5,1.069,18.839,3.2,28.3,4.52a7.3,7.3,0,0,1,4.951,2.776c5.893,11.17,13.369,21.51,17.747,33.5.459,3.778-.315,7.488-.968,11.129-6.308,35.166-11.463,70.522-17.541,105.725C960.148,706.175,960.52,708.961,957.093,708.874Z" fill="#0e1011"/>
      <path id="Path_17115" data-name="Path 17115" d="M960.917,554.887c-1.872-3.023-5.119-2.59-7.948-3.073-8.433-1.442-16.885-2.773-25.329-4.148-2.248-.422-4.394-1-5.325-3.454-7.037-12.8-13.488-25.909-19.767-39.1-2.051-4.306-4.527-8.395-6.39-12.788-2.575-6.073-1.348-7.958,5.4-8.393a9.433,9.433,0,0,0,4.863-.105c14.611-3.351,29.389-5.877,44.059-8.924,6.162-1.281,11.274-.082,16.677,2.906,20.72,11.462,41.923,22.031,62.671,33.45,2.493,1.372,4.723,3.162,8.273,4.8-14.362-8.02-26.94-16.882-39.842-25.241-5.911-3.829-11.9-7.548-17.67-11.579-1.66-1.159-3.994-2.145-3.8-4.618.205-2.568,2.751-2.988,4.629-3.693,20.075-7.541,39.555-16.531,59.5-24.377,5.3-2.084,10.3-4.845,15.769-6.557a12.389,12.389,0,0,1,7.458-.341c24.634,7.076,49.446,13.5,74.111,20.472,9.224,2.606,18.555,4.838,27.646,7.9,1.349.455,2.661.009,3.953.357,8.987,2.771,17.993,5.488,26.676,9.149-1.918,5.156-5.48,9.2-9.1,13.161-1.689,1.85-4.162,1.346-6.378,1.4-1.645.042-3.291.026-4.936-.03-.343.1-.339.27.026.47,7.108,3.9,7.274,4.577,2.169,10.819-7.386,9.033-13.993,18.663-21.313,27.746-1.5,1.859-2.785,3.917-5.065,4.991-9.789,2.18-19.784,3.04-29.651,4.72-8.248,1.4-16.586,2.277-24.811,3.869-15.152-1.734-30.429-2.128-45.543-4.2-2.874-1.533-2.48-4.5-2.98-7.034-.545-2.761.175-6.48-1.763-8.084-2.562-2.122-4.922,1.492-7.359,2.515a11.282,11.282,0,0,1-9.877-.3c-2-.96-4.138-1.579-6.14-2.527,1.605,1.121,2.878,2.59,4.36,3.81,2.336,1.925,2.159,4.023-.417,5.34-7.545,3.859-14.713,8.4-22.3,12.187C990.521,548.776,975.506,550.712,960.917,554.887Z" fill="#36383d"/>
      <path id="Path_17116" data-name="Path 17116" d="M736.874,567.5c-.5,7.352,1.444,14.453,2.318,21.655,1.74,14.338,3.817,28.635,5.771,42.947q2.387,17.483,4.81,34.959c1.7,12.392,3.458,24.777,5.052,37.182.734,5.713,2.479,11.331,1.778,17.194-12.974-7.013-25.974-13.98-38.915-21.053-13.351-7.3-26.646-14.7-39.965-22.057-3.776-.849-5.346-4.281-7.609-6.778-3.366-3.714-6.665-7.5-10.028-11.222-2.056-5.623-3.271-11.5-5.111-17.19-1.574-4.868-1.707-4.79-6.417-2.338-5.941,3.093-11.1,7.641-17.7,9.518-5.763-.394-11.547-.793-17.222-1.689-4.964-.785-10.138-2-12.668-7.349,2.555-4.021,5.163-8.011,7.639-12.08.985-1.619,2.432-1.99,4.1-2.274,5.15-.872,10.268-1.946,15.433-2.712a5.8,5.8,0,0,0,5.146-4.091c2.542-6.521,5.413-12.913,8.153-19.357,2.8-1.425,2.7-4.541,3.847-6.875,10.058-20.447,20.455-40.74,29.793-61.523,4.3-9.566,5.885-20.112,8.692-30.217.683-2.456,1.235-4.951,2.144-7.337.632-1.658,1.007-3.776,3.055-4.114,2.19-.361,3.436,1.487,4.706,2.964a4.914,4.914,0,0,1,.842,1.585c1.325,5.257-.328,10.434-.573,15.631a265.593,265.593,0,0,1-3.143,30.018c1.075-5.212,1.415-12.419,2.479-19.518,1.058-7.06,1.4-14.275,3.958-21.055,2.188-1.569,3.776.09,5.138,1.269,5.672,4.912,10.784,10.41,15.985,15.809a9.771,9.771,0,0,1,1.908,3.543c5.45,14.771,10.724,29.606,16.247,44.35A6.06,6.06,0,0,1,736.874,567.5Z" fill="#36383d"/>
      <path id="Path_17117" data-name="Path 17117" d="M1050.917,539.553q21.933,1.8,43.865,3.633a15.957,15.957,0,0,1,2.974.841c2.349.037,3.149,2.1,4.288,3.515,22.63,28.155,45.445,56.16,68.16,84.246a20.017,20.017,0,0,1,2.217,3.384c.98,3.252,3.537,6.205,1.914,9.957-4.018,2.257-8.7,1.822-13.272,3.152.99,3.047,3.647,4.672,5.409,6.9a21.708,21.708,0,0,1,4.673,10.454c1.453,9.292,2.956,18.582,5,27.779a15.355,15.355,0,0,1,.146,5.285c-.231,1.332-.1,3.122-2.322,2.976-4.84-4.22-9.807-8.3-14.462-12.72-2.133-2.023-3.944-2.28-6.713-1.457q-47.035,13.98-94.157,27.671c-1.427.417-2.977,1.872-4.462.015-.219-8.565,1.161-17.022,1.96-25.5,1.714-18.19,3.216-36.4,5.076-54.578.3-2.969,1.423-5.849.982-8.894-.71-13.6-3.817-26.86-5.6-40.3-1.689-12.722-4.121-25.323-5.766-38.044C1050.47,545.128,1049.5,542.3,1050.917,539.553Z" fill="#0e1011"/>
      <path id="Path_17118" data-name="Path 17118" d="M792.629,539.594c-8.066-1.205-16.07-2.966-24.3-2.734-16.446-6.451-32.617-13.582-49.136-19.849-3.448-1.308-5.26-4.329-7.572-6.841-4.553-4.949-9.379-9.673-12.848-15.518.409-2.726,3.053-3.36,4.795-5.143-3.658-.185-7.263-.786-8.721,3.817-.183.58-.875.7-1.476.309-1.263-2.982-1.6-6.418-4.315-8.678-.888-.74-1.5-2.169-2.838-1.884-1.423.3-1.263,1.866-1.557,2.957-3.336,12.394-6.9,24.723-10.425,37.066a49.362,49.362,0,0,1-3.155,8.363c-.335.678-.859,1.227-1.765.941q-9.03-16.628-18.058-33.257c.8-5.163,2.838-9.956,4.283-14.747a60,60,0,0,1-5.106,6.488c-.718.846-1.568,1.921-2.993,1.081-2.2-2.112-2.393-4.374-1.157-7.2,2.2-5.044,4.049-10.244,6.044-15.378,4.255-7.243,6.674-15.291,9.968-22.951,6.673-15.516,13.942-30.766,20.472-46.347,3.519-8.4,5.541-8.571,11.7-1.922a52.192,52.192,0,0,0,3.837,4.388c2.975,2.565,3.956,5.794,3.766,9.622-.416,8.379,1.446,16.685.9,25.077a5.668,5.668,0,0,0,.928,3.41c-1.446,6.628-3.661,13.054-5.321,19.634-.8,3.166-1.4,6.383-2.41,9.5-.394,1.215-1.015,2.657.881,3.344,7.9-1.863,15.31-5.124,22.822-8,14.975-5.73,30.156-10.907,45.047-16.859a9.609,9.609,0,0,1,5.746-.056c21.122,4.445,42.206,9.072,63.335,13.484a11.291,11.291,0,0,1,8.11,5.733c1.769,3.105,3.652,6.2,6.561,8.441a46.994,46.994,0,0,1,9.161,14.809,3.137,3.137,0,0,1-.039,1.291A286.77,286.77,0,0,1,834.486,515.4c-12.658,8.537-26.252,15.492-39.342,23.3A6.194,6.194,0,0,1,792.629,539.594Z" fill="#36383d"/>
      <path id="Path_17119" data-name="Path 17119" d="M1050.917,539.553q2.7,17.624,5.407,35.245c1.615,10.431,3.479,20.829,4.827,31.294.853,6.628,2.7,13.154,2.336,19.926-8.929,23.47-17.961,46.9-27.39,70.174a3.975,3.975,0,0,1-1.47,2.186c-14.418,2.1-28.841,4.173-43.252,6.321-10.186,1.519-20.354,3.163-30.538,4.7-1.253.19-2.665.823-3.744-.525a3.268,3.268,0,0,0,2.022-2.722c3.9-24.963,7.762-49.932,11.778-74.875,1.725-10.713,3.855-21.359,5.646-32.062.711-4.242,1-8.555,1.482-12.836,1.3-5.109,5.343-8.52,7.984-12.8,5.317-8.614,11.328-16.776,16.952-25.193.739-1.106,1.482-2.269,2.983-2.493,5.7-5.2,12.858-7.948,19.493-11.565,4.483-2.445,4.53-2.332.708-5.641-1.908-1.652-3.779-3.345-5.667-5.02l.655-.933a68.217,68.217,0,0,1,8.2,3.412c4.753,2.71,8.991,1.939,13.192-1.061a33.584,33.584,0,0,1,3.112-1.748c1.958-1.1,3.128-.561,3.422,1.674C1049.691,529.857,1050.3,534.706,1050.917,539.553Z" fill="#1a1c1d"/>
      <path id="Path_17120" data-name="Path 17120" d="M1174.175,644.808c-.106-3.548-2.181-6.562-2.713-9.994a30.569,30.569,0,0,1-2.957-9.319c-5.362-28.22-10.716-56.441-15.825-84.708-.341-1.889-1-3.8-.07-5.715q13.085-16.953,26.177-33.9c3.01-3.883,2.947-4.35-1.471-6.8-1.419-.788-2.853-1.55-4.906-2.664a13.114,13.114,0,0,1,7.739-.645c4.912.727,7.735-1.723,10.224-5.379,1.914-2.811,4.1-5.436,6.163-8.144q12.2,23.426,24.388,46.858c4.6,8.89,8.919,17.934,13.741,26.7a24.647,24.647,0,0,1,3.048,12.8c-.2,12.575-.089,25.154-.063,37.731a7.95,7.95,0,0,1-1.277,5.076q-18.411,25.423-36.716,50.924c-1.717.522-2.317-.971-3.207-1.845a22.083,22.083,0,0,1-3.736-4.416c-3.294-5.634-7.709-8.319-14.357-6.083C1177.033,645.73,1175.43,646.138,1174.175,644.808Z" fill="#1a1c1d"/>
      <path id="Path_17121" data-name="Path 17121" d="M765.572,338.768l12.585-8.023c2.619-.2,4.7-1.724,6.983-2.774,13.3-6.112,26.328-12.808,39.722-18.724,4.189-1.851,7.531-4.241,9.354-8.944,3.182-8.213,7.039-16.167,10.427-24.311,2.214-5.322,3.452-6,8.873-4.057,6,2.149,12.329,3.574,17.7,7.277.745,1.543.054,2.94-.533,4.3-3.562,8.239-6.654,16.669-10.141,24.942-2.023,4.8-5.6,7.916-8.447,10.4,8.533-4.337,10.365-14.334,14.289-22.865,1.806-3.926,3.641-7.874,5.187-11.933.584-1.533,1.376-3.029,3.188-3.533,4.17-.186,7.924,1.572,11.63,2.965,11.741,4.412,23.639,8.379,35.407,12.713,4.66,1.717,8.286,3.988,9.6,9a7.784,7.784,0,0,0,6.731,6.25c1.156,1.462-.168,1.966-1.076,2.118a8.172,8.172,0,0,0-5.761,3.909c-3.734,5.934-9.859,6.647-16.238,7.445,6.824,1.737,7.421,3.184,3.354,8.168-12.87,15.77-26,31.329-38.325,47.539a4.115,4.115,0,0,1-1.752,1.37c-4.04,1.254-7.982-.378-11.978-.385-4.322-.007-8.668-.295-12.96.059-6.565.541-12.322-1.359-17.7-4.844-2.143-1.388-4.7-1.887-6.814-3.312-11.069-6.2-22.546-11.629-33.734-17.613-9.081-4.857-18.173-9.7-27.38-14.313C766.7,341.052,765.041,340.673,765.572,338.768Z" fill="#36383d"/>
      <path id="Path_17122" data-name="Path 17122" d="M1028.817,306.387q25.408,40.3,50.811,80.6c10.272,16.315,20.3,32.785,30.865,48.911,2.794,4.267,2.523,7.072-1.093,10.089-1.621,2.748-3.943,1.623-5.959.867-12.21-4.582-24.838-7.984-36.949-12.779-5.96-2.359-10.969-1.8-16.12,1.457-4.824,3.047-10.07,5.307-15.138,7.9-1.457.744-2.916,1.59-4.676,1.308a3.545,3.545,0,0,1-1.719-1.142c-9.449-17.536-19.431-34.783-28.906-52.31a12.447,12.447,0,0,1-1.46-3.76c-1.612-11.623-3.282-23.235-3.6-34.982,1.493-5.491,5.459-9.567,8.408-14.193,6.354-9.967,13.386-19.491,19.7-29.495C1024.255,306.835,1025.527,304,1028.817,306.387Z" fill="#1a1c1d"/>
      <path id="Path_17123" data-name="Path 17123" d="M1028.817,306.387c-2.2-.926-3.408.538-4.4,2.02q-13.865,20.766-27.629,41.6a14.032,14.032,0,0,0-.8,1.6c-4.793,2.051-10.015.709-14.941,1.882-1.75.417-3.632.363-4.833,1.914-4.1,5.292-8.433,10.426-11.234,16.6-3.517,4.38-8.956,3.64-13.555,4.7-10.17,2.334-20.133,5.486-30.331,7.608-10.455,2.175-20.765,5.385-31.6,5.33a49.154,49.154,0,0,0-8.559-5.89c-.967-.512-2.214-.992-1.93-2.536,2.2-5.719,6.808-9.721,10.473-14.35,9.534-12.042,19.415-23.809,29.176-35.671,1.8-2.192,2.234-3.844-1.275-4.583-1.729-.364-3.4-1.014-5.576-1.682,2.858-.763,5.238-1.884,7.64-1.934,4.449-.092,7.815-1.794,10.127-5.44a12.26,12.26,0,0,1,8.918-5.6c5.956-.96,8.148-5.577,10.109-10.42,1.085-2.157,3.006-3.165,5.172-3.967,16.21-6,32.368-12.142,48.556-18.2,2.572-.963,5.218-2.546,8.1-.763a148.751,148.751,0,0,1,16.984,25.23Z" fill="#0e1011"/>
      <path id="Path_17124" data-name="Path 17124" d="M1010.425,279.492c-1.528-1.082-3.009-.725-4.644-.1q-21.527,8.212-43.1,16.3c-2.921,1.1-5.849,2.2-8.833,3.106a7.7,7.7,0,0,0-4.6,3.227,72.554,72.554,0,0,0-14.666-1.6c-6.612-.062-12.267-3.587-18.245-5.8-12.456-4.612-24.559-10.115-36.781-15.313-1.365-.581-2.86-1-3.46-2.6.414-1.8,1.975-1.477,3.215-1.707,3.321-.615,6.554-1.592,9.835-2.367.583-.14-.205-.959.071-.427.073.141,0,.252-.22.314a98.194,98.194,0,0,1-15.987,3.49c-9.328-2.943-18.152-7.137-27.1-11.013-.692-.3-1.264-.772-1.058-1.684a242.071,242.071,0,0,1,27.737-5.488c11.035-.69,21.834-3.093,32.77-4.517,20.946-2.728,41.833-5.906,62.782-8.626,2.811-.365,5.407-.358,7.282,2.2.92,2.16-.734,2.947-2.117,3.8a44.768,44.768,0,0,1-9.356,4.7c3.435-1.582,8.511-3.194,13.481-5.1,2.776-1.066,5.507-2.409,8.629-2.057q16.506,11.4,33,22.816c1.385.963,3.278,1.647,3.114,3.9.325.438.1,1.061-.233.978C1017.353,274.788,1014,277.469,1010.425,279.492Z" fill="#36383d"/>
      <path id="Path_17125" data-name="Path 17125" d="M1239.844,651.247a15.157,15.157,0,0,1,.182-14.025c5.239-10.889,9.937-22.041,14.746-33.132a7.879,7.879,0,0,1,4.808-4.785c9.381-3.458,18.685-7.13,27.985-10.8a8.416,8.416,0,0,1,6.008-.374c7.258,2.268,14.595,4.286,21.9,6.4,6.646,6.015,13.119,12.23,20.144,17.812,1.759,1.4,1.9,3.17,1.93,5.19.105,6.113-.432,12.237.3,18.338.1,1.021.46,2.107-.7,2.811a43.8,43.8,0,0,0-4.693,1.391,8.874,8.874,0,0,1-9.361-2.538,146.518,146.518,0,0,1-10.489-11.422c2.886,3.016,5.573,7.378,8.506,11.55,1.982,2.819,1.517,4.179-1.722,4.649-7.67,1.112-15.2,2.987-22.893,3.954-5.1-1.741-10.419-2.683-15.564-4.23-3.265-.982-4.018.243-3.872,3.157a8.172,8.172,0,0,1-.734,4.81c-2.765.676-2.517-1.7-2.33-2.878,1.332-8.415-5.158-11.627-10.222-15.807a3.455,3.455,0,0,0-4.183-.319c-5.415,3.131-10.993,5.976-13.678,12.3C1244.609,646.354,1243.354,649.742,1239.844,651.247Z" fill="#36383d"/>
      <path id="Path_17126" data-name="Path 17126" d="M685.56,380.3c4.441-2.908,9.424-4.645,14.3-6.614,6.182-1.2,11.754-4.193,17.748-6,12.46-3.751,24.638-8.384,37-12.451.569-.187,1.136-.387,1.72-.521,3.957-.9,5.223.238,4.038,4.1-1.8,5.871-3.265,11.841-5.118,17.685-2.762,8.708-5.223,17.5-7.87,26.241-.422,1.395-.385,3.033-1.933,3.87-5.271-.677-9.8,2.1-14.686,3.2-2.435.549-4.656,2.113-7.332,1.53-5.974-2.831-12.423-4.283-18.659-6.348-2.329-.771-4.445-1.647-5.99-3.673-4.451-5.835-8.193-12.159-12.525-18.076A3.228,3.228,0,0,1,685.56,380.3Z" fill="#36383d"/>
      <path id="Path_17127" data-name="Path 17127" d="M1030.187,444.131c6.452-2.065,12.343-5.4,18.085-8.819,6.246-3.725,11.891-5.173,19.189-2.177,11.876,4.876,24.255,8.532,36.438,12.653,1.774.6,3.615,1.711,5.5.2-.353,2.674,2.03,2.168,3.3,2.606,18.378,6.334,36.792,12.564,55.191,18.836a16.941,16.941,0,0,1,1.968.961,4.978,4.978,0,0,1-4.273.7c-9.036-3.032-18.3-5.27-27.489-7.75-19.7-5.313-39.35-10.8-59.02-16.224-3.45-.952-7.091-1.5-10.3-2.99-7.223-3.353-13.472-.6-19.963,2.154-17.991,7.64-36.049,15.122-54.1,22.628-4.963,2.064-9.952,4.076-14.986,5.96-3.221,1.205-2.921,2.153-.366,4.047,8.875,6.578,18.459,12.061,27.634,18.172,10.784,7.183,21.75,14.093,32.624,21.142.347.225.544.68,1.309,1.676-6.061-1.874-10.589-5.244-15.462-7.8q-31.1-16.294-61.938-33.1c-6.1-3.322-11.944-1.023-17.724.085-13.581,2.6-27.245,4.85-40.656,8.309-1.277.329-2.7.542-3.694-.8.059-1.8,1.6-2,2.786-2.448q24.328-9.2,48.68-18.336a10.579,10.579,0,0,1,10.556,1.485c9.9,6.991,9.986,7,20.645,1.526,13.96-7.169,27.869-14.437,41.862-21.543C1027.328,444.6,1028.568,443.712,1030.187,444.131Z" fill="#4c4d53"/>
      <path id="Path_17128" data-name="Path 17128" d="M745,406.426c4.811-16.2,9.594-32.4,14.462-48.578.719-2.389.348-3.161-2.161-2.208-9,3.421-18.288,5.99-27.29,9.457-9.278,3.572-18.892,6.27-28.354,9.366a1.32,1.32,0,0,1-1.8-.775q25.545-11.532,51.092-23.061c.681-.308,1.354-.64,2.056-.9,5.6-2.038,11.083-4.206,12.565-10.964,7.445,4.981,15.781,8.291,23.6,12.577,13.047,7.149,26.3,13.916,39.469,20.844.2,1.381-.833,1.514-1.766,1.751a152.219,152.219,0,0,1-20.351-8.157c-10.331-4.78-20.69-9.5-31-14.325-2.975-1.392-3.995.1-4.845,2.6-6.129,18.014-12.768,35.847-19.146,53.773-5.023,14.116-10.412,28.1-14.906,42.4-.342,1.089-1.173,2.106-.5,3.771a131.5,131.5,0,0,0,19.08-8.7c8.267-4.707,15.888-4.605,24.744-1.8,18.13,5.737,36.727,9.933,54.955,15.4a12.054,12.054,0,0,1,5.762,3.3c3.031,4.551,6.993,8.605,7.775,14.375-2.081-.862-4.784-3.58-7.129-8.132-1.747-3.391-4.146-4.811-7.911-5.579-18.482-3.773-36.869-8.008-55.319-11.941-6.14-1.309-11.919-2.292-18.48.526-15.137,6.5-30.812,11.756-46.268,17.518-4.724,1.761-9.454,3.506-14.164,5.3-1.039.4-1.977.759-2.785-.347.6-2.037,2.484-2.424,4.09-3.139,8.33-3.71,16.545-7.664,24.766-11.605a8.374,8.374,0,0,0,4.687-5.6c4.229-14.182,8.175-28.447,12.623-42.563C743.083,409.343,743.2,407.432,745,406.426Z" fill="#4b4d52"/>
      <path id="Path_17129" data-name="Path 17129" d="M1296.585,645.769c7.213-2.508,14.78-3.3,22.261-4.433,2.677-.4,3.145-.741,1.382-3.082-3.194-4.241-6.07-8.721-9.078-13.1l1.188-1.153c3.418,3.785,7,7.44,10.208,11.4,3.021,3.722,6.4,4.968,10.989,3.264.981-.365,2.443-1.682,3.607.018q-9.207,13.211-18.41,26.423a4.412,4.412,0,0,1-3.158,2.187c-16.84,2.4-33.669,4.87-50.5,7.311a3.654,3.654,0,0,1-.887-.087c-1.39-1.724-.35-3.1.73-4.357,3.494-4.071,6.731-8.364,10.49-12.207a211.755,211.755,0,0,1,18.277-11.563A3.243,3.243,0,0,1,1296.585,645.769Z" fill="#1a1c1d"/>
      <path id="Path_17130" data-name="Path 17130" d="M617.989,697.2c-8.368-6.03-15.607-13.4-23.573-19.9a2.693,2.693,0,0,1-.863-3.155c1.028-4.043,1.92-8.121,2.865-12.186,2.229-3.477,2.283-7.652,3.662-11.406,1.839-5.009,3.419-5.463,8.439-3.533,8.254,3.173,11.979,10.8,17.376,16.808,1.861,5.4,1.222,11.4,3.987,16.592a2.384,2.384,0,0,1-.554,2.509c-3.161,2.489-4.511,6.3-6.861,9.383C621.13,694.067,620.2,696.239,617.989,697.2Z" fill="#36383d"/>
      <path id="Path_17131" data-name="Path 17131" d="M1034.627,698.378c.221-5.1,3.087-9.333,4.827-13.886,7.178-18.788,14.787-37.412,22.193-56.114.405-1.023.757-1.936,1.84-2.361-1.131,11.374-2.3,22.743-3.377,34.122-.739,7.843-1.307,15.7-2.009,23.549-.886,9.914-1.829,19.822-2.75,29.733a2.05,2.05,0,0,1-1.176,1.763A253.336,253.336,0,0,1,1034.627,698.378Z" fill="#36383d"/>
      <path id="Path_17132" data-name="Path 17132" d="M604.5,529.807c-7.05-7.115-14.068-14.262-21.178-21.318-1.3-1.29-.9-2.179-.085-3.429,3.5-5.4,6.969-10.826,10.344-16.306a7.372,7.372,0,0,1,3.739-3.026c2.355-.96,4.7-1.959,7.037-2.955,13.881-5.9,13.88-5.9,26.234,3.749a3.3,3.3,0,0,1-2.273,2.565c-8.178,3.094-12.6,10.333-17.847,16.519-2.894,3.409-2.114,8.283-2.789,12.516-.421,2.642-.852,5.306-1.087,7.984C606.455,527.657,606.041,529.053,604.5,529.807Z" fill="#3a3b41"/>
      <path id="Path_17133" data-name="Path 17133" d="M1275.962,658.222c-2.694,4.458-6.545,7.982-9.762,12.02-1.044,1.311-2.26,2.406-2.015,4.269a1.917,1.917,0,0,1-2.481-.214c-7.223-7.743-15.231-14.743-21.86-23.05a56.427,56.427,0,0,0,5.691-9.574c2.86-6.789,9.4-9.145,15.073-12.543.467-.28,1.367-.521,1.676-.28,3.968,3.1,7.938,6.2,11.748,9.493,1.82,1.572.713,3.951.986,5.955.276,2.019-.622,4.191.8,6.059C1277.9,652.941,1277.387,655.573,1275.962,658.222Z" fill="#0e1011"/>
      <path id="Path_17134" data-name="Path 17134" d="M628.887,682.616l.847-1.787c-.286-1.516.925-2.1,1.85-2.728,8.587-5.83,17.261-11.529,25.9-17.283.839-.558,1.751-1.188,2.879-.648,4.275,1.426,5.938,5.652,8.712,8.583,2.935,3.1,5.98,6.191,8.649,9.574q-11.685,10.387-23.388,20.752c-.83.732-1.479,1.987-2.955,1.613a22.528,22.528,0,0,1-7.134-4.3c-4.138-3.358-8.141-6.883-12.471-10.008C630.475,685.447,629.141,684.413,628.887,682.616Z" fill="#494c53"/>
      <path id="Path_17135" data-name="Path 17135" d="M685.56,380.3c4.617,6.605,9.309,13.16,13.8,19.846a8.5,8.5,0,0,0,5.32,3.639c5.472,1.481,10.85,3.305,16.267,4.988,1.145.356,2.393.592,2.453,2.172.6,1.659-.41,2.878-1.214,4.086-5.274,7.923-10.848,15.644-15.887,23.726-.59.946-1.2,2.155-2.724,1.851-1.993.781-1.9-.571-1.818-1.82.613-9.422-1.41-18.763-.876-28.175a7.454,7.454,0,0,0-2.518-6.346,93.521,93.521,0,0,1-8.241-8.7c-1.8-2.2-2.66-1.669-3.877.4-3.42,5.813-5.427,12.248-8.23,18.33-3.115,6.757-6.271,13.5-9.252,20.315-4.1,9.37-8.043,18.808-12.068,28.21-1.049,2.452-1.773,5.134-4.37,6.561,7.067-19.237,14.054-38.5,21.232-57.7C677.485,401.2,680.891,390.506,685.56,380.3Z" fill="#4a4c52"/>
      <path id="Path_17136" data-name="Path 17136" d="M1173.969,701.675c2.32-2.823.6-6.138,1.119-9.181-1.388-8.588.812-16.929,1.766-25.354a3.226,3.226,0,0,1,2.054-2.778c6.766-2.227,13.275-5.359,20.506-6,3.718,7.021,5.612,14.761,8.7,22.032.652,1.538-.237,2.134-1.33,2.8q-15.311,9.326-30.6,18.7C1175.359,702.394,1174.606,702.8,1173.969,701.675Z" fill="#1a1c1d"/>
      <path id="Path_17137" data-name="Path 17137" d="M604.5,529.807c1.825-4.918,2.255-10.234,2.328-15.247.114-7.781,4.841-12.338,9.234-17.49a36.505,36.505,0,0,1,14.529-10.548c2.278,1.336,1.935,3.889,2.547,5.9,1.911,6.293,3.5,12.682,5.258,19.023.5,1.808.949,3.193-1.478,4.279-10.23,4.578-20.352,9.4-30.517,14.121C605.773,530.14,605.108,530.75,604.5,529.807Z" fill="#1a1c1d"/>
      <path id="Path_17138" data-name="Path 17138" d="M844.842,263.316,872.743,275c1.092,2.232.144,3.58-1.924,4.444-6.3-2.263-12.716-4.253-18.852-6.9-3.372-1.452-4.64-.115-5.78,2.518-3.851,8.892-8.143,17.627-11.374,26.739-1.775,5-5.582,6.615-9.478,8.521-7.873,3.851-15.869,7.449-23.784,11.216-6.272,2.985-12.474,6.116-18.762,9.068-1.421.667-3.056,1.406-4.632.131,14.919-9.7,29.751-19.532,44.812-29a20.754,20.754,0,0,0,8.669-10.3c3.5-8.587,7.45-16.988,11.242-25.454C843.333,264.975,843.277,263.534,844.842,263.316Z" fill="#4c4d52"/>
      <path id="Path_17139" data-name="Path 17139" d="M1199.414,658.362c-5.664,2.794-11.735,4.44-17.785,6.07-2.784.75-3.694,2.072-3.922,4.973-.606,7.718-1.712,15.4-2.619,23.09-2.486-6.891-3.545-14.185-4.209-21.322-.806-8.664-4.426-15.229-10.536-20.9-.814-.755-2.312-1.479-1.776-2.815.546-1.36,2.117-.61,3.234-.783,4.123-.638,8.249-1.246,12.374-1.866,9.431-3.237,16.685-1.032,21.384,8.237.9,1.766,2.708,3.067,4.1,4.583A.712.712,0,0,1,1199.414,658.362Z" fill="#37393f"/>
      <path id="Path_17140" data-name="Path 17140" d="M669.317,532.4c4.051-7.838,5.66-16.476,8.075-24.843,2.345-8.122,4.531-16.29,6.709-24.458.829-3.109,1.933-3.021,4.025-.881,3.18,3.254,6.289,6.415,5.567,11.5a.536.536,0,0,1-.079.838c-5.1-4.1-5.237-4.144-7.157,2.427-2.172,7.435-4.39,14.883-5.995,22.451-2.264,10.677-7.331,20.16-11.971,29.815-7.384,15.364-15.1,30.569-22.628,45.862-.581,1.179-.768,2.546-1.273,3.771-.557,1.353-1.024,3.058-3.144,1.879q10.992-26.924,21.983-53.849Q666.387,539.665,669.317,532.4Z" fill="#4b4d52"/>
      <path id="Path_17141" data-name="Path 17141" d="M975.32,248.049c-1.828-1.948-3.678-2.468-6.643-2.077-23.844,3.144-47.652,6.523-71.451,9.99-6.166.9-12.379,1.49-18.5,2.734-2.154.438-4.135-.326-6.149-.868,13.154-3.378,26.581-5.409,39.879-8.076,17.715-3.553,35.481-6.856,53.176-10.5,4.205-.867,7.8-.907,11.059,2.277a44.821,44.821,0,0,0,5,3.727C980.2,247.626,978.275,249.013,975.32,248.049Z" fill="#4c4d52"/>
      <path id="Path_17142" data-name="Path 17142" d="M628.887,682.616l22.493,18.076c-11.179-.7-22.322-1.738-33.391-3.49,2.788-4.354,5.586-8.7,8.356-13.068A2.91,2.91,0,0,1,628.887,682.616Z" fill="#0e1011"/>
      <path id="Path_17143" data-name="Path 17143" d="M625.226,663.743c-3.789-2.336-6.131-6.166-8.685-9.514-2.653-3.478-6.007-5.11-9.613-6.819-2.734-1.295-4.516-.915-5.32,2.328a91.836,91.836,0,0,1-2.727,8.965c-.452,1.257-.322,3.188-2.463,3.257a124.355,124.355,0,0,1,4.553-20.681c6.088,5.98,13.988,6.6,21.811,7.1,2.969.188,5.871.634,8.8.993A20.423,20.423,0,0,1,625.226,663.743Z" fill="#494b52"/>
      <path id="Path_17144" data-name="Path 17144" d="M1337.846,635.866c-1.61-4.938-.9-10.054-.594-15.008.3-4.7-1.73-7.368-5.086-9.984a143.921,143.921,0,0,1-15.294-13.651,3.863,3.863,0,0,1-1.4-2.7c6.764,1.8,13.515,3.662,20.3,5.377,1.865.471,2.237,1.515,2.223,3.224C1337.907,614.04,1337.889,624.953,1337.846,635.866Z" fill="#494c53"/>
      <path id="Path_17145" data-name="Path 17145" d="M1010.425,279.492c1.8-3.439,7.434-5.629,11.736-4.559,2.354,9.522,3.565,19.251,5.253,28.893Z" fill="#494c53"/>
      <path id="Path_17146" data-name="Path 17146" d="M975.32,248.049l6.372-2.8,4.358,2.964a176.964,176.964,0,0,1-25.321,8.323Z" fill="#0e1012"/>
      <path id="Path_17147" data-name="Path 17147" d="M647.443,491.965c4.169-2.892,6.267-7.626,10.044-11.043-2.257,6.053-2.664,12.658-6.228,18.221A28.366,28.366,0,0,1,647.443,491.965Z" fill="#0f1012"/>
      <path id="Path_17148" data-name="Path 17148" d="M834.01,514.384q9.717-9.477,19.439-18.947c1.271-1.235,2.63-2.379,3.949-3.565,2.954-.347,4.47,2.04,6.342,3.535,18.184,14.525,35.661,29.912,53.953,44.3,1.913,1.329,3.188,3.462,5.456,4.352,1.028,1.786,2.829,2.611,4.491,3.607-2.377-.115-3.318.92-3.68,3.388-2.222,15.149-4.731,30.255-6.983,45.4-2.843,19.117-5.5,38.262-8.3,57.385-1.208,8.237-2.945,16.4-3.561,24.719-.054.724.076,1.685-.862,1.833-1.221.194-1.824-.85-2.4-1.7-5.793-8.515-11.5-17.088-17.355-25.563q-32.958-47.719-65.991-95.388c-1.1-1.586-2.235-3.143-3.354-4.713-.136-1.884.766-3.5,1.563-5.05C822.483,536.782,827.641,525.271,834.01,514.384Z" fill="#1d1c20"/>
      <path id="Path_17149" data-name="Path 17149" d="M699.05,494.58c4.292,4.745,9.193,9.081,12.722,14.339,4.355,6.486,11.134,8.156,17.49,10.84,10.732,4.533,21.582,8.788,32.294,13.366,2.336,1,5.591.579,6.774,3.735L736.874,567.5c-3.624-4.425-4.3-10.1-6.313-15.2-4.113-10.416-7.735-21.026-11.592-31.544a7.017,7.017,0,0,0-1.458-2.7c-6.424-6.038-11.866-13.127-19.282-18.106C696.848,497.909,695.972,495.942,699.05,494.58Z" fill="#494c53"/>
      <path id="Path_17150" data-name="Path 17150" d="M1005.94,545.894q-13.149,19.491-26.317,38.968a10.107,10.107,0,0,1-1.6,1.517l-17.1-31.493c.294-2.115,1.965-2.384,3.609-2.691q18.842-3.52,37.686-7.029C1003.516,544.924,1004.906,544.592,1005.94,545.894Z" fill="#494c53"/>
      <path id="Path_17151" data-name="Path 17151" d="M834.01,514.384c-5.069,13.476-12.4,25.849-18.857,38.646L792.63,539.594c4.058-4.076,9.486-5.976,14.272-8.885C815.915,525.232,825.336,520.43,834.01,514.384Z" fill="#494c53"/>
      <path id="Path_17152" data-name="Path 17152" d="M923.149,544.059c-3.315,1.1-3.819-2.071-5.426-3.567-6.035-5.543-12.3-10.811-18.687-15.949-9.729-7.831-18.974-16.245-28.836-23.919-4.22-3.284-8.216-6.861-12.83-9.617l-8.927-14.431q-4.063-6.748-8.129-13.5c1.952-1.556,3.68-.218,5.444.442,9.563,3.572,18.485,8.559,27.825,12.624,1.062.463,2.141,1.543,3.3.806,1.205-.764.667-2.171.531-3.33-1.589-13.531-3.4-27.034-5.232-40.533-.284-2.093-.68-4.15.15-6.2,4.557-11.157,8.991-22.366,13.68-33.47.666-1.576.971-3.538,3.045-4.125,3.271-2.2,7.15-.545,10.645-1.744,7.28-2.5,15.029-2.92,22.5-4.764,9.624-2.376,19.117-5.292,28.869-7.275,4.5-.916,9.989-.1,13.518-4.42a2.326,2.326,0,0,1,2.556-.013c10.09,5.816,20.955,10.147,30.942,16.16,3.037,8.294,8.325,15.395,12.385,23.15,4.9,9.351,10.433,18.366,15.309,27.74a48.087,48.087,0,0,0,3.543,5.155l.859.848c-17.844,9.265-35.705,18.5-53.508,27.84a4.952,4.952,0,0,1-5.763-.293c-2.929-2.052-6.034-3.865-8.87-6.033-3.413-2.609-6.735-1.564-10.155-.262q-22.949,8.738-45.9,17.468c-1.511.575-3.019,1.163-4.528,1.744-6.255,1.4-6.853,2.1-4.112,7.721,7.153,14.678,14.6,29.212,21.921,43.809C920.593,538.757,921.859,541.414,923.149,544.059Z" fill="#0e1011"/>
      <path id="Path_17153" data-name="Path 17153" d="M1152.61,535.072c2.081,10.474,4.234,20.935,6.226,31.426q5.736,30.2,11.318,60.422c.489,2.622.875,5.264,1.308,7.9q-23-28.355-45.992-56.7-13.842-17.054-27.714-34.084c3.114-3.155,7.367-1.82,11.009-2.453C1123.317,539.045,1137.985,537.182,1152.61,535.072Z" fill="#494c53"/>
      <path id="Path_17154" data-name="Path 17154" d="M625.226,663.743l6.357-14.376c6.065-3.527,12.15-7.021,18.188-10.593,3.96-2.342,4.592-2.147,5.829,2.117,1.659,5.718,3.31,11.439,5.032,17.139a3.349,3.349,0,0,1-.27,2.14l-30.628,20.66c-2.592-.451-2.431-2.538-2.688-4.43C626.473,672.176,625.837,667.961,625.226,663.743Z" fill="#1a1c1d"/>
      <path id="Path_17155" data-name="Path 17155" d="M699.05,494.58c-1.623,1.584-.612,3.572-.821,5.373-1.224,7.021-2.5,14.034-3.658,21.065-1.273,7.692-2.444,15.4-4.1,23.042,1-16.523,2.5-32.983,3.141-49.5a5.346,5.346,0,0,0,.078-.839c2.129-6.342.964-5.375,12.01-5.252C704.258,491.549,700.871,492.26,699.05,494.58Z" fill="#0e1012"/>
      <path id="Path_17156" data-name="Path 17156" d="M703.58,440.61,723.4,410.947c6.094-1.892,12.2-3.756,18.275-5.7,1.5-.479,2.926-1.241,3.323,1.177-4.816,16.442-9.707,32.863-14.377,49.347-.8,2.829-2.912,3.6-5,4.577-9.724,4.572-19.489,9.058-29.239,13.575-1.592.612-2.912,1.285-2.075-1.63,1.99-6.941,3.723-13.955,5.53-20.948C700.795,447.663,701.65,443.951,703.58,440.61Z" fill="#1a1c1d"/>
      <path id="Path_17157" data-name="Path 17157" d="M857.37,491.007c3.629.481,6,3.036,8.686,5.144q15.537,12.193,30.415,25.178c6.024,5.271,12.653,9.843,18.446,15.426,1.179,1.135,2.735,1.828,2.806,3.737-4.165-1.771-7.409-4.922-10.748-7.759C890.65,518.867,874.251,505.1,857.4,491.872A5.317,5.317,0,0,0,857.37,491.007Z" fill="#0e1011"/>
      <path id="Path_17158" data-name="Path 17158" d="M889.06,389.3l-15.513,37.74c-2.419,1.251-3.151-.783-4.026-2.2q-7.782-12.606-14.894-25.6c-2.6-4.727-5.905-9.013-8.3-13.864-1.055-2.138-3.277-3.043-5.354-3.878-3.759-1.513-7.31-3.451-10.958-5.188-1.355-.646-3.312-.969-3.19-3.2a1.9,1.9,0,0,0,1.817-.911c4.775,2.39,9.556,4.769,14.322,7.175a8.379,8.379,0,0,0,3.864.947c10.733.012,21.476-.287,32.176.9,2.606,1.582,5.18,3.221,7.832,4.722C888.21,386.707,889.239,387.562,889.06,389.3Z" fill="#494c53"/>
      <path id="Path_17159" data-name="Path 17159" d="M876.317,276.79q23.59,9.988,47.187,19.968a29.961,29.961,0,0,0,13.464,2.5c3.622-.214,7.078.768,10.628,1,1.1.071,1.494.813,1.647,1.772-.974,2.434-1.772,4.958-2.964,7.28-1.674,3.263-4.96,2.427-7.791,2.642-4.182.616-6.735-.847-7.706-5.252-1.192-5.408-4.966-8.012-10.226-9.732-13.705-4.482-27.212-9.572-40.815-14.37-1.666-.588-3.44-.869-5.164-1.292C873.353,279.1,873.6,277.467,876.317,276.79Z" fill="#484b52"/>
      <path id="Path_17160" data-name="Path 17160" d="M876.317,276.79a5.079,5.079,0,0,0-1.741,4.51c-4.906,7.745-7.85,16.445-11.221,24.84a29.106,29.106,0,0,1-13.988,15.417c-.612-.331-.347-.825-.037-1.049,9.2-6.658,12.089-17.111,16.111-26.857,1.93-4.678,3.6-9.465,5.379-14.2.829-1.4,1.852-2.716,1.923-4.444,5.762-.012,11.183-2.377,17.036-2.128Z" fill="#0e1012"/>
      <path id="Path_17161" data-name="Path 17161" d="M997.818,387.709c-9.993-4.713-19.968-9.458-29.566-14.955-1.157-.663-2.437-1.111-3.66-1.66-.334-.671-.622-1.281-.067-2.043,3.066-4.207,6.412-8.254,9.046-12.719,3.3-5.593,8.847-3.718,13.49-4.631,2.873-.564,5.947-.1,8.931-.1.507,10.957,1.965,21.817,3.287,32.692.161,1.323.205,2.661.3,3.992C998.692,389.014,998.355,388.057,997.818,387.709Z" fill="#494c53"/>
      <path id="Path_17162" data-name="Path 17162" d="M997.818,387.709l1.764.579q13.86,25.026,27.7,50.065a46.784,46.784,0,0,1,2.046,4.931,15.653,15.653,0,0,1-5.475-6.343c-7.893-14.769-15.759-29.559-24.666-43.753A9.083,9.083,0,0,1,997.818,387.709Z" fill="#0e1011"/>
      <path id="Path_17163" data-name="Path 17163" d="M1275.962,658.222q-.072-3.933-.146-7.866.043-4.224.088-8.449c.011-1.311.439-2.837,1.918-2.146,6.015,2.809,13.145,2.055,18.763,6.008Z" fill="#494b52"/>
      <path id="Path_17164" data-name="Path 17164" d="M826.826,373.1c3.856,2.878,8.434,4.334,12.7,6.408,3.872,1.885,7.146,3.7,9.437,8.155,3.24,6.3,7.225,12.3,10.735,18.532S867,418.5,870.62,424.678c.7,1.2,1.271,2.413,2.928,2.358a7.9,7.9,0,0,0-.562,4.32c1.8,13.018,3.446,26.058,5.159,39.088.232,1.765.7,3.505.831,5.274.085,1.1.522,2.515-.82,3.229-1.2.638-2.2-.089-3.312-.645-10.624-5.312-21.347-10.417-32.325-14.963a8.125,8.125,0,0,0-2.2-.259c-5.433-4.072-12.064-4.784-18.326-6.53-16.379-4.567-32.889-8.728-49.071-13.91-6.146-1.967-10.347.84-15.08,2.9-7.106,3.1-14.061,6.537-21.073,9.848-.842.4-1.894.853-2.51.2-.974-1.033,0-2.244.361-3.289q8.417-24.1,16.922-48.162c6.026-16.989,12.243-33.911,18.109-50.954,1.356-3.937,2.534-4.731,6.572-2.825C792.943,358.249,809.577,366.367,826.826,373.1Z" fill="#36383d"/>
      <path id="Path_17165" data-name="Path 17165" d="M888.089,457.634c-.555,1.213.977,3.637-1.023,3.684-2.815.067-2.8-2.607-2.589-4.716.146-1.434-.973-4.037,1.4-3.97C888.989,452.719,887.685,455.736,888.089,457.634Z" fill="#0e1011"/>
      <path id="Path_17166" data-name="Path 17166" d="M1008.121,422.255c-1.183-2.044-1.68-4.06-3.967-4.918-1.3-.486-1.451-2.6-.617-3.558.977-1.123,2.124.117,2.873.97C1008.194,416.782,1012.27,418.211,1008.121,422.255Z" fill="#0e1011"/>
      <path id="Path_17167" data-name="Path 17167" d="M873.587,494.875c3.664-.517,6.159-.513,7.114,2.693.254.851.173,2.155-.92,2.139C876.848,499.666,875.96,496.93,873.587,494.875Z" fill="#0e1011"/>
      <path id="Path_17168" data-name="Path 17168" d="M901.482,473h7.136c.64,0,1.273.172,1.2.916s-.89,1.886-1.246,1.517C906.5,473.288,903.44,475.673,901.482,473Z" fill="#0e1011"/>
      <path id="Path_17169" data-name="Path 17169" d="M886.533,508.793a1.92,1.92,0,0,1-1.545-2.235c.057-.865.473-1.83,1.558-1.861,1.54-.044,1.447,1.181,1.448,2.21C888,507.828,887.879,508.734,886.533,508.793Z" fill="#0e1011"/>
      <path id="Path_17170" data-name="Path 17170" d="M884.631,414.875c-.1-2.2.6-3.528,2.294-4.156.694-.256,1.034.319,1.048.968C888.016,413.71,886.737,414.485,884.631,414.875Z" fill="#0e1011"/>
      <path id="Path_17171" data-name="Path 17171" d="M989.636,456.851c2.089-1.789,3.819-2.07,6.374-2.667C994.1,456.523,992.731,457.758,989.636,456.851Z" fill="#0e1011"/>
      <path id="Path_17172" data-name="Path 17172" d="M925.641,467.375a1.3,1.3,0,0,1-1.861.836c-.694-.266-1.378-.759-1.073-1.634s1.138-.779,1.855-.65A1.214,1.214,0,0,1,925.641,467.375Z" fill="#0e1011"/>
    </g>
    <text id="CoalExpert" transform="translate(-1309 1868)" font-size="100" font-family="Montserrat" font-weight="700"><tspan x="0" y="0">CoalExpert</tspan></text>
  </g>
</svg>
