<svg id="Logo" xmlns="http://www.w3.org/2000/svg" width="74.612" height="47.737" viewBox="0 0 74.612 47.737">
  <path id="Path_17114" data-name="Path 17114" d="M757.293,552.426c-1.6-.815-3.211-1.621-4.807-2.452a1.045,1.045,0,0,0-.834-.079q-6.829,1.881-13.665,3.733c-.152.041-.318.194-.494.039a1.7,1.7,0,0,1-.152-.686c-.662-4.618-1.258-9.246-1.909-13.865a1.443,1.443,0,0,1-.006-.572,1.315,1.315,0,0,1,.364-.436,39.093,39.093,0,0,1,2.9-2.774,1.244,1.244,0,0,1,.736.021,12.826,12.826,0,0,1,1.6.236c.777.467,1.587.882,2.322,1.42a33.555,33.555,0,0,1,2.006,2.817c2.176,3.152,4.376,6.288,6.536,9.451.017.026.041.042.109.068.141-.57.2-1.149.285-1.72.455-2.891.858-5.79,1.309-8.682.107-.686.215-1.372.309-2.06.042-.308.19-.49.516-.494.939.106,1.86.317,2.8.446a.721.721,0,0,1,.489.274,27.508,27.508,0,0,1,1.753,3.308,3.69,3.69,0,0,1-.1,1.1c-.623,3.473-1.132,6.964-1.732,10.441C757.594,552.16,757.631,552.435,757.293,552.426Z" transform="translate(-720.297 -505.998)" fill="#0e1011"/>
  <path id="Path_17115" data-name="Path 17115" d="M901.429,450.65c-.185-.3-.506-.256-.785-.3-.833-.142-1.667-.274-2.5-.41-.222-.042-.434-.1-.526-.341-.695-1.265-1.332-2.559-1.952-3.861-.2-.425-.447-.829-.631-1.263-.254-.6-.133-.786.533-.829a.931.931,0,0,0,.48-.01c1.443-.331,2.9-.58,4.351-.881a2.256,2.256,0,0,1,1.647.287c2.046,1.132,4.14,2.176,6.189,3.3.246.135.466.312.817.474-1.418-.792-2.661-1.667-3.935-2.493-.584-.378-1.175-.745-1.745-1.143-.164-.114-.394-.212-.375-.456s.272-.3.457-.365c1.983-.745,3.906-1.633,5.876-2.407.523-.206,1.018-.478,1.557-.648a1.223,1.223,0,0,1,.737-.034c2.433.7,4.883,1.334,7.319,2.022.911.257,1.832.478,2.73.78.133.045.263,0,.39.035.888.274,1.777.542,2.634.9a4.094,4.094,0,0,1-.9,1.3c-.167.183-.411.133-.63.139-.162,0-.325,0-.487,0-.034.01-.033.027,0,.046.7.385.718.452.214,1.068-.729.892-1.382,1.843-2.1,2.74a1.523,1.523,0,0,1-.5.493c-.967.215-1.954.3-2.928.466-.815.139-1.638.225-2.45.382-1.5-.171-3.005-.21-4.5-.415-.284-.151-.245-.444-.294-.695-.054-.273.017-.64-.174-.8-.253-.21-.486.147-.727.248a1.114,1.114,0,0,1-.975-.03c-.2-.095-.409-.156-.606-.25.159.111.284.256.431.376.231.19.213.4-.041.527-.745.381-1.453.83-2.2,1.2A37.182,37.182,0,0,0,901.429,450.65Z" transform="translate(-864.056 -419.429)" fill="#36383d"/>
  <path id="Path_17116" data-name="Path 17116" d="M614.392,498.242a11.3,11.3,0,0,0,.229,2.139c.172,1.416.377,2.828.57,4.241q.236,1.727.475,3.452c.168,1.224.342,2.447.5,3.672a6.847,6.847,0,0,1,.176,1.7c-1.281-.693-2.565-1.381-3.843-2.079-1.318-.721-2.631-1.452-3.947-2.178-.373-.084-.528-.423-.751-.669-.332-.367-.658-.74-.99-1.108-.2-.555-.323-1.135-.5-1.7-.155-.481-.169-.473-.634-.231a9.643,9.643,0,0,1-1.748.94c-.569-.039-1.14-.078-1.7-.167a1.462,1.462,0,0,1-1.251-.726c.252-.4.51-.791.754-1.193a.51.51,0,0,1,.405-.225c.509-.086,1.014-.192,1.524-.268a.572.572,0,0,0,.508-.4c.251-.644.535-1.275.805-1.912.277-.141.266-.448.38-.679.993-2.019,2.02-4.023,2.942-6.076a20.622,20.622,0,0,0,.858-2.984c.067-.243.122-.489.212-.725.062-.164.1-.373.3-.406s.339.147.465.293a.486.486,0,0,1,.083.156,5.158,5.158,0,0,1-.057,1.544,26.223,26.223,0,0,1-.31,2.964c.106-.515.14-1.226.245-1.927a9.919,9.919,0,0,1,.391-2.079c.216-.155.373.009.507.125.56.485,1.065,1.028,1.579,1.561a.965.965,0,0,1,.188.35c.538,1.459,1.059,2.924,1.6,4.38A.6.6,0,0,1,614.392,498.242Z" transform="translate(-599.145 -465.776)" fill="#36383d"/>
  <path id="Path_17117" data-name="Path 17117" d="M1050.243,539.553q2.166.178,4.332.359a1.581,1.581,0,0,1,.294.083c.232,0,.311.207.424.347,2.235,2.781,4.488,5.546,6.731,8.32a1.983,1.983,0,0,1,.219.334c.1.321.349.613.189.983a5.961,5.961,0,0,1-1.311.311c.1.3.36.461.534.681a2.145,2.145,0,0,1,.462,1.032c.143.918.292,1.835.494,2.743a1.517,1.517,0,0,1,.014.522c-.023.132-.01.308-.229.294-.478-.417-.969-.82-1.428-1.256a.587.587,0,0,0-.663-.144q-4.645,1.381-9.3,2.733c-.141.041-.294.185-.441,0a21.11,21.11,0,0,1,.194-2.518c.169-1.8.318-3.595.5-5.39a3.526,3.526,0,0,0,.1-.878c-.07-1.343-.377-2.653-.553-3.98-.167-1.256-.407-2.5-.569-3.757A1.315,1.315,0,0,1,1050.243,539.553Z" transform="translate(-1003.982 -509.846)" fill="#0e1011"/>
  <path id="Path_17118" data-name="Path 17118" d="M660.052,407.887a13.636,13.636,0,0,0-2.4-.27c-1.624-.637-3.221-1.341-4.852-1.96a2.1,2.1,0,0,1-.748-.676,9.527,9.527,0,0,1-1.269-1.533c.04-.269.3-.332.474-.508-.361-.018-.717-.078-.861.377-.018.057-.086.069-.146.031-.125-.294-.158-.634-.426-.857-.088-.073-.148-.214-.28-.186s-.125.184-.154.292c-.329,1.224-.682,2.442-1.03,3.661a4.87,4.87,0,0,1-.312.826c-.033.067-.085.121-.174.093l-1.783-3.284a10.78,10.78,0,0,1,.423-1.456,5.935,5.935,0,0,1-.5.641c-.071.084-.155.19-.3.107a.564.564,0,0,1-.114-.711c.218-.5.4-1.012.6-1.519a19.692,19.692,0,0,0,.984-2.267c.659-1.532,1.377-3.038,2.022-4.577.347-.829.547-.846,1.156-.19a5.135,5.135,0,0,0,.379.433,1.1,1.1,0,0,1,.372.95c-.041.828.143,1.648.089,2.477a.56.56,0,0,0,.092.337c-.143.655-.362,1.289-.525,1.939-.079.313-.138.63-.238.938-.039.12-.1.262.087.33a17.781,17.781,0,0,0,2.254-.79c1.479-.566,2.978-1.077,4.449-1.665a.949.949,0,0,1,.567-.006c2.086.439,4.168.9,6.255,1.332a1.115,1.115,0,0,1,.8.566,2.662,2.662,0,0,0,.648.834,4.641,4.641,0,0,1,.9,1.462.309.309,0,0,1,0,.128,28.315,28.315,0,0,1-2.3,2.312c-1.25.843-2.593,1.53-3.885,2.3A.612.612,0,0,1,660.052,407.887Z" transform="translate(-639.298 -378.176)" fill="#36383d"/>
  <path id="Path_17119" data-name="Path 17119" d="M966.359,524.4q.267,1.74.534,3.481c.159,1.03.344,2.057.477,3.09a10.836,10.836,0,0,1,.231,1.968c-.882,2.318-1.774,4.632-2.7,6.93a.393.393,0,0,1-.145.216c-1.424.208-2.848.412-4.271.624-1.006.15-2.01.312-3.016.464-.124.019-.263.081-.37-.052a.323.323,0,0,0,.2-.269c.385-2.465.767-4.931,1.163-7.394.17-1.058.381-2.109.558-3.166.07-.419.1-.845.146-1.268a4.773,4.773,0,0,1,.788-1.264c.525-.851,1.119-1.657,1.674-2.488.073-.109.146-.224.295-.246a9.25,9.25,0,0,1,1.925-1.142c.443-.241.447-.23.07-.557-.188-.163-.373-.33-.56-.5l.065-.092a6.74,6.74,0,0,1,.81.337,1.111,1.111,0,0,0,1.3-.1,3.32,3.32,0,0,1,.307-.173c.193-.109.309-.055.338.165C966.238,523.438,966.3,523.917,966.359,524.4Z" transform="translate(-920.098 -494.689)" fill="#1a1c1d"/>
  <path id="Path_17120" data-name="Path 17120" d="M1154.309,494.055a8.014,8.014,0,0,0-.268-.987,3.02,3.02,0,0,1-.292-.92c-.53-2.787-1.058-5.574-1.563-8.365a.868.868,0,0,1-.007-.564q1.292-1.674,2.585-3.348c.3-.383.291-.43-.145-.672-.14-.078-.282-.153-.484-.263a1.3,1.3,0,0,1,.764-.064.97.97,0,0,0,1.01-.531c.189-.278.4-.537.609-.8q1.2,2.313,2.408,4.628c.455.878.881,1.771,1.357,2.637a2.433,2.433,0,0,1,.3,1.264c-.019,1.242-.009,2.484-.006,3.726a.785.785,0,0,1-.126.5q-1.818,2.511-3.626,5.029c-.17.052-.229-.1-.317-.182a2.179,2.179,0,0,1-.369-.436,1.094,1.094,0,0,0-1.418-.6A.362.362,0,0,1,1154.309,494.055Z" transform="translate(-1095.876 -453.954)" fill="#1a1c1d"/>
  <path id="Path_17121" data-name="Path 17121" d="M765.48,277.64l1.243-.792a2.044,2.044,0,0,0,.69-.274c1.314-.6,2.6-1.265,3.923-1.849a1.56,1.56,0,0,0,.924-.883c.314-.811.7-1.6,1.03-2.4.219-.526.341-.592.876-.4a7.219,7.219,0,0,1,1.748.719.484.484,0,0,1-.053.424c-.352.814-.657,1.646-1,2.463a2.835,2.835,0,0,1-.834,1.027c.843-.428,1.024-1.416,1.411-2.258.178-.388.36-.778.512-1.178a.5.5,0,0,1,.315-.349,2.914,2.914,0,0,1,1.149.293c1.159.436,2.334.827,3.5,1.255a1.3,1.3,0,0,1,.948.889.769.769,0,0,0,.665.617c.114.144-.017.194-.106.209a.807.807,0,0,0-.569.386,1.927,1.927,0,0,1-1.6.735c.674.172.733.314.331.807-1.271,1.557-2.568,3.094-3.785,4.695a.406.406,0,0,1-.173.135,3.77,3.77,0,0,1-1.183-.038c-.427,0-.856-.029-1.28.006a2.719,2.719,0,0,1-1.748-.478c-.212-.137-.465-.186-.673-.327-1.093-.612-2.227-1.148-3.331-1.739-.9-.48-1.795-.957-2.7-1.414C765.591,277.866,765.427,277.828,765.48,277.64Z" transform="translate(-747.398 -267.762)" fill="#36383d"/>
  <path id="Path_17122" data-name="Path 17122" d="M998.223,305.565q2.509,3.98,5.018,7.959c1.014,1.611,2.005,3.238,3.048,4.83.276.421.249.7-.108,1-.16.271-.389.16-.589.086-1.206-.453-2.453-.788-3.649-1.262a1.628,1.628,0,0,0-1.592.144c-.476.3-.994.524-1.495.78a.746.746,0,0,1-.462.129.35.35,0,0,1-.17-.113c-.933-1.732-1.919-3.435-2.855-5.166a1.228,1.228,0,0,1-.144-.371,31.384,31.384,0,0,1-.356-3.455,5.323,5.323,0,0,1,.83-1.4c.628-.984,1.322-1.925,1.946-2.913C997.773,305.609,997.9,305.329,998.223,305.565Z" transform="translate(-954.145 -298.885)" fill="#1a1c1d"/>
  <path id="Path_17123" data-name="Path 17123" d="M893.763,280.612c-.217-.091-.337.053-.434.2q-1.369,2.051-2.729,4.108a1.392,1.392,0,0,0-.079.158,8.43,8.43,0,0,1-1.475.186c-.173.041-.359.036-.477.189a8.475,8.475,0,0,0-1.109,1.639c-.347.433-.884.359-1.339.464-1,.23-1.988.542-3,.751a14.986,14.986,0,0,1-3.121.526,4.856,4.856,0,0,0-.845-.582c-.1-.051-.219-.1-.191-.25A5.721,5.721,0,0,1,880,286.584c.942-1.189,1.917-2.351,2.881-3.523.178-.216.221-.38-.126-.453-.171-.036-.336-.1-.551-.166a3.528,3.528,0,0,1,.755-.191,1.127,1.127,0,0,0,1-.537,1.211,1.211,0,0,1,.881-.553c.588-.095.8-.551,1-1.029a.839.839,0,0,1,.511-.392c1.6-.592,3.2-1.2,4.8-1.8.254-.1.515-.251.8-.075a14.685,14.685,0,0,1,1.677,2.492Z" transform="translate(-849.684 -273.932)" fill="#0e1011"/>
  <path id="Path_17124" data-name="Path 17124" d="M861.156,247.968a.448.448,0,0,0-.459-.01q-2.126.811-4.257,1.61c-.288.109-.578.217-.872.307a.76.76,0,0,0-.455.319,7.167,7.167,0,0,0-1.448-.158,5.422,5.422,0,0,1-1.8-.573c-1.23-.455-2.425-1-3.632-1.512-.135-.057-.282-.1-.342-.257.041-.178.2-.146.318-.169.328-.061.647-.157.971-.234.058-.014-.02-.095.007-.042.007.014,0,.025-.022.031a9.693,9.693,0,0,1-1.579.345,28.027,28.027,0,0,1-2.677-1.088c-.068-.03-.125-.076-.1-.166a23.9,23.9,0,0,1,2.739-.542c1.09-.068,2.156-.305,3.236-.446,2.069-.269,4.131-.583,6.2-.852a.678.678,0,0,1,.719.217c.091.213-.073.291-.209.375a4.42,4.42,0,0,1-.924.464c.339-.156.841-.315,1.331-.5a1.8,1.8,0,0,1,.852-.2q1.63,1.126,3.259,2.253c.137.1.324.163.308.385.032.043.01.1-.023.1A1.508,1.508,0,0,0,861.156,247.968Z" transform="translate(-818.894 -243.944)" fill="#36383d"/>
  <path id="Path_17125" data-name="Path 17125" d="M1238.374,594.006a1.5,1.5,0,0,1,.018-1.385c.517-1.075.981-2.177,1.456-3.272a.778.778,0,0,1,.475-.473c.926-.341,1.845-.7,2.764-1.067a.831.831,0,0,1,.593-.037c.717.224,1.441.423,2.163.632.656.594,1.3,1.208,1.989,1.759a.584.584,0,0,1,.191.513,17.781,17.781,0,0,0,.029,1.811c.01.1.045.208-.07.278a4.321,4.321,0,0,0-.464.137.876.876,0,0,1-.924-.251,14.436,14.436,0,0,1-1.036-1.128,10.462,10.462,0,0,1,.84,1.141c.2.278.15.413-.17.459-.757.11-1.5.3-2.261.391-.5-.172-1.029-.265-1.537-.418-.323-.1-.4.024-.382.312a.807.807,0,0,1-.072.475c-.273.067-.249-.168-.23-.284.132-.831-.509-1.148-1.009-1.561a.341.341,0,0,0-.413-.031,2.729,2.729,0,0,0-1.351,1.215A1.268,1.268,0,0,1,1238.374,594.006Z" transform="translate(-1173.455 -553.269)" fill="#36383d"/>
  <path id="Path_17126" data-name="Path 17126" d="M685.445,356.98a7.917,7.917,0,0,1,1.412-.653,18.209,18.209,0,0,0,1.753-.592c1.23-.37,2.433-.828,3.654-1.23.056-.018.112-.038.17-.051.391-.089.516.023.4.4-.178.58-.322,1.169-.505,1.747-.273.86-.516,1.728-.777,2.591-.042.138-.038.3-.191.382a4.121,4.121,0,0,0-1.45.316c-.24.054-.46.209-.724.151a15.808,15.808,0,0,0-1.843-.627,1.126,1.126,0,0,1-.592-.363c-.44-.576-.809-1.2-1.237-1.785A.319.319,0,0,1,685.445,356.98Z" transform="translate(-675.265 -343.001)" fill="#36383d"/>
  <path id="Path_17127" data-name="Path 17127" d="M914.176,432.77a8.728,8.728,0,0,0,1.786-.871,1.932,1.932,0,0,1,1.9-.215c1.173.482,2.4.843,3.6,1.25.175.059.357.169.543.019-.035.264.2.214.326.257,1.815.626,3.633,1.241,5.45,1.86a1.67,1.67,0,0,1,.194.095.491.491,0,0,1-.422.069c-.892-.3-1.807-.52-2.715-.765-1.945-.525-3.886-1.067-5.829-1.6a6.517,6.517,0,0,1-1.017-.3,2.271,2.271,0,0,0-1.971.213c-1.777.754-3.56,1.493-5.342,2.235-.49.2-.983.4-1.48.589-.318.119-.288.213-.036.4.876.65,1.823,1.191,2.729,1.795,1.065.709,2.148,1.392,3.222,2.088.034.022.054.067.129.166a8.663,8.663,0,0,1-1.527-.77q-3.072-1.609-6.117-3.269a2.415,2.415,0,0,0-1.75.008c-1.341.257-2.691.479-4.015.821a.309.309,0,0,1-.365-.079c.006-.178.158-.2.275-.242q2.4-.908,4.807-1.811a1.045,1.045,0,0,1,1.042.147c.978.69.986.691,2.039.151,1.379-.708,2.752-1.426,4.134-2.128A.571.571,0,0,1,914.176,432.77Z" transform="translate(-869.962 -412.487)" fill="#4c4d53"/>
  <path id="Path_17128" data-name="Path 17128" d="M701.189,345.45c.475-1.6.947-3.2,1.428-4.8.071-.236.034-.312-.213-.218-.889.338-1.806.592-2.7.934-.916.353-1.866.619-2.8.925a.13.13,0,0,1-.178-.077l5.046-2.277c.067-.03.134-.063.2-.088.553-.2,1.095-.415,1.241-1.083.735.492,1.558.819,2.331,1.242,1.288.706,2.6,1.374,3.9,2.058.02.136-.082.15-.174.173a15.034,15.034,0,0,1-2.01-.806c-1.02-.472-2.043-.938-3.061-1.415-.294-.137-.395.01-.479.257-.605,1.779-1.261,3.54-1.891,5.31-.5,1.394-1.028,2.775-1.472,4.188-.034.108-.116.208-.05.372a12.986,12.986,0,0,0,1.884-.859,2.83,2.83,0,0,1,2.444-.178c1.79.567,3.627.981,5.427,1.521a1.19,1.19,0,0,1,.569.326,3.485,3.485,0,0,1,.768,1.42,1.7,1.7,0,0,1-.7-.8.994.994,0,0,0-.781-.551c-1.825-.373-3.641-.791-5.463-1.179a2.81,2.81,0,0,0-1.825.052c-1.495.642-3.043,1.161-4.569,1.73-.466.174-.934.346-1.4.524-.1.039-.2.075-.275-.034.059-.2.245-.239.4-.31.823-.366,1.634-.757,2.446-1.146a.827.827,0,0,0,.463-.553c.418-1.4.807-2.809,1.247-4.2C701,345.738,701.011,345.549,701.189,345.45Z" transform="translate(-685.139 -328.89)" fill="#4b4d52"/>
  <path id="Path_17129" data-name="Path 17129" d="M1266.782,626.15a12.106,12.106,0,0,1,2.2-.438c.264-.04.311-.073.136-.3-.315-.419-.6-.861-.9-1.294l.117-.114c.338.374.691.735,1.008,1.125a.871.871,0,0,0,1.085.322c.1-.036.241-.166.356,0l-1.818,2.609a.436.436,0,0,1-.312.216c-1.663.237-3.325.481-4.988.722a.361.361,0,0,1-.088-.009c-.137-.17-.035-.306.072-.43.345-.4.665-.826,1.036-1.206a20.961,20.961,0,0,1,1.8-1.142A.321.321,0,0,1,1266.782,626.15Z" transform="translate(-1196.259 -585.954)" fill="#1a1c1d"/>
  <path id="Path_17130" data-name="Path 17130" d="M595.818,651.024c-.826-.6-1.541-1.323-2.328-1.965a.266.266,0,0,1-.085-.312c.1-.4.19-.8.283-1.2a5.3,5.3,0,0,0,.362-1.126c.182-.495.338-.54.833-.349.815.313,1.183,1.067,1.716,1.66a10.334,10.334,0,0,0,.394,1.639.235.235,0,0,1-.055.248,4.448,4.448,0,0,0-.678.927C596.128,650.714,596.036,650.929,595.818,651.024Z" transform="translate(-592.311 -605.748)" fill="#36383d"/>
  <path id="Path_17131" data-name="Path 17131" d="M1034.627,633.163a4.439,4.439,0,0,1,.477-1.371c.709-1.855,1.46-3.695,2.192-5.542.04-.1.075-.191.182-.233-.112,1.123-.228,2.246-.334,3.37-.073.775-.129,1.551-.2,2.326-.088.979-.181,1.958-.272,2.936a.2.2,0,0,1-.116.174A25.028,25.028,0,0,1,1034.627,633.163Z" transform="translate(-989.975 -587.772)" fill="#36383d"/>
  <path id="Path_17132" data-name="Path 17132" d="M584.654,483.775c-.7-.7-1.389-1.408-2.091-2.105-.128-.127-.088-.215-.008-.339.346-.533.688-1.069,1.021-1.61a.728.728,0,0,1,.369-.3c.233-.095.464-.193.695-.292,1.371-.583,1.371-.583,2.591.37a.325.325,0,0,1-.224.253,4.652,4.652,0,0,0-1.763,1.631c-.286.337-.209.818-.275,1.236-.042.261-.084.524-.107.788A.4.4,0,0,1,584.654,483.775Z" transform="translate(-582.479 -455.031)" fill="#3a3b41"/>
  <path id="Path_17133" data-name="Path 17133" d="M1243.411,631.662a11.787,11.787,0,0,1-.964,1.187c-.1.129-.223.238-.2.422a.189.189,0,0,1-.245-.021c-.713-.765-1.5-1.456-2.159-2.276a5.581,5.581,0,0,0,.562-.945c.282-.67.929-.9,1.489-1.239.046-.028.135-.052.166-.028.392.306.784.613,1.16.938.18.155.07.39.1.588s-.061.414.079.6A.645.645,0,0,1,1243.411,631.662Z" transform="translate(-1174.925 -590.236)" fill="#0e1011"/>
  <path id="Path_17134" data-name="Path 17134" d="M628.887,662.2l.084-.176c-.028-.15.091-.207.183-.269.848-.576,1.7-1.139,2.558-1.707.083-.055.173-.117.284-.064.422.141.586.558.86.848.29.306.591.611.854.945q-1.154,1.026-2.31,2.049c-.082.072-.146.2-.292.159a2.226,2.226,0,0,1-.7-.425c-.409-.332-.8-.68-1.232-.988A.574.574,0,0,1,628.887,662.2Z" transform="translate(-624.304 -618.366)" fill="#494c53"/>
  <path id="Path_17135" data-name="Path 17135" d="M655.612,380.3c.456.652.919,1.3,1.363,1.96a.839.839,0,0,0,.525.359c.54.146,1.072.326,1.607.493.113.035.236.058.242.215.06.164-.04.284-.12.4-.521.782-1.071,1.545-1.569,2.343-.058.093-.118.213-.269.183-.2.077-.188-.056-.18-.18.06-.93-.139-1.853-.087-2.782a.736.736,0,0,0-.249-.627,9.235,9.235,0,0,1-.814-.859c-.178-.217-.263-.165-.383.039a19.8,19.8,0,0,0-.813,1.81c-.308.667-.619,1.333-.914,2.006-.4.925-.794,1.857-1.192,2.786a1.136,1.136,0,0,1-.432.648c.7-1.9,1.388-3.8,2.1-5.7C654.814,382.365,655.151,381.31,655.612,380.3Z" transform="translate(-645.432 -366.322)" fill="#4a4c52"/>
  <path id="Path_17136" data-name="Path 17136" d="M1173.969,662.639c.229-.279.059-.606.11-.907a9.1,9.1,0,0,1,.174-2.5.319.319,0,0,1,.2-.274,9.124,9.124,0,0,1,2.025-.593c.367.693.554,1.458.859,2.176.064.152-.023.211-.131.276q-1.512.921-3.021,1.846C1174.106,662.71,1174.032,662.751,1173.969,662.639Z" transform="translate(-1115.556 -616.922)" fill="#1a1c1d"/>
  <path id="Path_17137" data-name="Path 17137" d="M604.5,490.8a4.516,4.516,0,0,0,.23-1.506,2.662,2.662,0,0,1,.912-1.727,3.6,3.6,0,0,1,1.435-1.042c.225.132.191.384.252.583.189.621.346,1.252.519,1.879.05.179.094.315-.146.423-1.01.452-2.01.928-3.014,1.395C604.622,490.83,604.556,490.89,604.5,490.8Z" transform="translate(-602.322 -462.053)" fill="#1a1c1d"/>
  <path id="Path_17138" data-name="Path 17138" d="M784.743,263.316l2.755,1.154c.108.22.014.354-.19.439-.622-.223-1.256-.42-1.862-.681-.333-.143-.458-.011-.571.249-.38.878-.8,1.741-1.123,2.641a1.5,1.5,0,0,1-.936.841c-.778.38-1.567.736-2.349,1.108-.619.295-1.232.6-1.853.9-.14.066-.3.139-.457.013,1.473-.958,2.938-1.929,4.425-2.864a2.049,2.049,0,0,0,.856-1.017c.345-.848.736-1.678,1.11-2.514C784.594,263.48,784.588,263.338,784.743,263.316Z" transform="translate(-758.833 -260.889)" fill="#4c4d52"/>
  <path id="Path_17139" data-name="Path 17139" d="M1162.5,644.882a9.5,9.5,0,0,1-1.756.6.457.457,0,0,0-.387.491c-.06.762-.169,1.52-.259,2.28a8.507,8.507,0,0,1-.416-2.106,3.077,3.077,0,0,0-1.04-2.064c-.08-.074-.228-.146-.175-.278s.209-.06.319-.077c.407-.063.815-.123,1.222-.184a1.54,1.54,0,0,1,2.112.813,2.337,2.337,0,0,0,.4.453A.07.07,0,0,1,1162.5,644.882Z" transform="translate(-1101.573 -603.442)" fill="#37393f"/>
  <path id="Path_17140" data-name="Path 17140" d="M644.2,485.787a13.092,13.092,0,0,0,.8-2.453c.232-.8.448-1.609.663-2.415.082-.307.191-.3.4-.087a1.327,1.327,0,0,1,.55,1.136.053.053,0,0,1-.008.083c-.5-.405-.517-.409-.707.24-.214.734-.433,1.47-.592,2.217a13.191,13.191,0,0,1-1.182,2.944c-.729,1.517-1.491,3.019-2.235,4.529-.057.116-.076.251-.126.372s-.1.3-.31.186l2.171-5.318Q643.909,486.5,644.2,485.787Z" transform="translate(-635.623 -456.786)" fill="#4b4d52"/>
  <path id="Path_17141" data-name="Path 17141" d="M882.725,239.664a.667.667,0,0,0-.656-.205c-2.355.31-4.706.644-7.056.987-.609.089-1.222.147-1.827.27a1.3,1.3,0,0,1-.607-.086c1.3-.334,2.625-.534,3.938-.8,1.749-.351,3.5-.677,5.251-1.037a1.086,1.086,0,0,1,1.092.225,4.418,4.418,0,0,0,.494.368A.5.5,0,0,1,882.725,239.664Z" transform="translate(-843.93 -238.745)" fill="#4c4d52"/>
  <path id="Path_17142" data-name="Path 17142" d="M619.065,682.616l2.221,1.785c-1.1-.069-2.2-.172-3.3-.345.275-.43.552-.859.825-1.291A.288.288,0,0,1,619.065,682.616Z" transform="translate(-614.482 -638.781)" fill="#0e1011"/>
  <path id="Path_17143" data-name="Path 17143" d="M599.263,643.5a3.455,3.455,0,0,1-.858-.94,2.329,2.329,0,0,0-.949-.673c-.27-.128-.446-.09-.525.23a9.037,9.037,0,0,1-.269.885c-.045.124-.032.315-.243.322a12.28,12.28,0,0,1,.45-2.042,3.117,3.117,0,0,0,2.154.7c.293.019.58.063.869.1A2.017,2.017,0,0,1,599.263,643.5Z" transform="translate(-595.042 -601.526)" fill="#494b52"/>
  <path id="Path_17144" data-name="Path 17144" d="M1317.684,598.609a3.905,3.905,0,0,1-.059-1.482,1.062,1.062,0,0,0-.5-.986,14.216,14.216,0,0,1-1.51-1.348.382.382,0,0,1-.138-.266c.668.178,1.335.362,2.005.531.184.047.221.15.219.318C1317.69,596.453,1317.688,597.531,1317.684,598.609Z" transform="translate(-1243.087 -559.391)" fill="#494c53"/>
  <path id="Path_17145" data-name="Path 17145" d="M1010.425,275.137a1.114,1.114,0,0,1,1.159-.45c.232.94.352,1.9.519,2.853Z" transform="translate(-968.163 -271.113)" fill="#494c53"/>
  <path id="Path_17146" data-name="Path 17146" d="M962.17,245.529l.629-.276.43.293a17.477,17.477,0,0,1-2.5.822Z" transform="translate(-923.375 -244.61)" fill="#0e1012"/>
  <path id="Path_17147" data-name="Path 17147" d="M647.443,482.013c.412-.286.619-.753.992-1.091a8.777,8.777,0,0,1-.615,1.8A2.8,2.8,0,0,1,647.443,482.013Z" transform="translate(-641.027 -457.006)" fill="#0f1012"/>
  <path id="Path_17148" data-name="Path 17148" d="M817,494.065q.96-.936,1.92-1.871c.126-.122.26-.235.39-.352.292-.034.441.2.626.349,1.8,1.434,3.522,2.954,5.328,4.375.189.131.315.342.539.43a1.1,1.1,0,0,0,.444.356c-.235-.011-.328.091-.363.335-.219,1.5-.467,2.988-.69,4.483-.281,1.888-.543,3.779-.82,5.667-.119.813-.291,1.619-.352,2.441-.005.072.007.167-.085.181-.121.019-.18-.084-.237-.168-.572-.841-1.136-1.688-1.714-2.525q-3.255-4.713-6.517-9.42c-.108-.157-.221-.31-.331-.465a.947.947,0,0,1,.154-.5C815.865,496.276,816.374,495.14,817,494.065Z" transform="translate(-792.163 -466.843)" fill="#1d1c20"/>
  <path id="Path_17149" data-name="Path 17149" d="M697.173,494.58A13.289,13.289,0,0,1,698.429,496a3.331,3.331,0,0,0,1.727,1.07c1.06.448,2.131.868,3.189,1.32.231.1.552.057.669.369l-3.106,3.026a5.139,5.139,0,0,1-.623-1.5c-.406-1.029-.764-2.076-1.145-3.115A.692.692,0,0,0,699,496.9a15.905,15.905,0,0,0-1.9-1.788C696.955,494.909,696.869,494.715,697.173,494.58Z" transform="translate(-685.661 -469.315)" fill="#494c53"/>
  <path id="Path_17150" data-name="Path 17150" d="M965.364,545.035q-1.3,1.925-2.6,3.848a.993.993,0,0,1-.158.15l-1.689-3.11c.029-.209.194-.235.356-.266q1.861-.348,3.722-.694C965.125,544.939,965.262,544.907,965.364,545.035Z" transform="translate(-923.545 -514.702)" fill="#494c53"/>
  <path id="Path_17151" data-name="Path 17151" d="M796.717,514.384a39.374,39.374,0,0,1-1.862,3.817l-2.224-1.327a6.788,6.788,0,0,1,1.409-.878C794.93,515.455,795.86,514.981,796.717,514.384Z" transform="translate(-771.876 -487.163)" fill="#494c53"/>
  <path id="Path_17152" data-name="Path 17152" d="M848.495,387.822c-.327.109-.377-.2-.536-.352-.6-.547-1.215-1.068-1.846-1.575-.961-.773-1.874-1.6-2.848-2.362a12.858,12.858,0,0,0-1.267-.95l-.882-1.425-.8-1.333c.193-.154.363-.022.538.044.944.353,1.826.845,2.748,1.247.1.046.211.152.326.08s.066-.214.052-.329c-.157-1.336-.336-2.67-.517-4a1.156,1.156,0,0,1,.015-.612c.45-1.1.888-2.209,1.351-3.305.066-.156.1-.349.3-.407.323-.217.706-.054,1.051-.172.719-.247,1.484-.288,2.222-.47.95-.235,1.888-.523,2.851-.718.445-.09.986-.009,1.335-.437a.23.23,0,0,1,.252,0c1,.574,2.069,1,3.056,1.6a19.648,19.648,0,0,0,1.223,2.286c.484.923,1.03,1.814,1.512,2.74a4.746,4.746,0,0,0,.35.509l.085.084c-1.762.915-3.526,1.827-5.284,2.749a.489.489,0,0,1-.569-.029c-.289-.2-.6-.382-.876-.6a.941.941,0,0,0-1-.026l-4.533,1.725-.447.172c-.618.138-.677.207-.406.763.706,1.45,1.442,2.885,2.165,4.326C848.242,387.3,848.367,387.561,848.495,387.822Z" transform="translate(-814.851 -357.671)" fill="#0e1011"/>
  <path id="Path_17153" data-name="Path 17153" d="M1103.173,535.072c.205,1.034.418,2.067.615,3.1q.567,2.982,1.118,5.967c.048.259.086.52.129.78q-2.271-2.8-4.542-5.6-1.367-1.684-2.737-3.366c.308-.312.728-.18,1.087-.242C1100.28,535.464,1101.729,535.28,1103.173,535.072Z" transform="translate(-1046.869 -505.808)" fill="#494c53"/>
  <path id="Path_17154" data-name="Path 17154" d="M625.226,639.892l.628-1.42c.6-.348,1.2-.693,1.8-1.046.391-.231.453-.212.576.209.164.565.327,1.13.5,1.693a.331.331,0,0,1-.027.211l-3.025,2.04c-.256-.045-.24-.251-.265-.437C625.349,640.725,625.286,640.308,625.226,639.892Z" transform="translate(-621.005 -597.921)" fill="#1a1c1d"/>
  <path id="Path_17155" data-name="Path 17155" d="M691.321,488.961c-.16.156-.06.353-.081.531-.121.693-.246,1.386-.361,2.08-.126.76-.241,1.521-.4,2.276.1-1.632.247-3.257.31-4.888a.53.53,0,0,0,.008-.083c.21-.626.1-.531,1.186-.519C691.835,488.661,691.5,488.732,691.321,488.961Z" transform="translate(-679.809 -463.696)" fill="#0e1012"/>
  <path id="Path_17156" data-name="Path 17156" d="M694.994,408.287l1.958-2.929c.6-.187,1.2-.371,1.8-.563.148-.047.289-.123.328.116-.476,1.624-.959,3.245-1.42,4.873-.079.279-.288.355-.494.452-.96.452-1.925.895-2.888,1.341-.157.06-.288.127-.2-.161.2-.685.368-1.378.546-2.069A4.125,4.125,0,0,1,694.994,408.287Z" transform="translate(-683.035 -388.352)" fill="#1a1c1d"/>
  <path id="Path_17157" data-name="Path 17157" d="M857.37,491.007a1.819,1.819,0,0,1,.858.508q1.534,1.2,3,2.486c.595.521,1.25.972,1.822,1.523.116.112.27.181.277.369a4.317,4.317,0,0,1-1.061-.766c-1.612-1.369-3.232-2.729-4.9-4.035A.526.526,0,0,0,857.37,491.007Z" transform="translate(-830.223 -466.095)" fill="#0e1011"/>
  <path id="Path_17158" data-name="Path 17158" d="M832.967,373.878l-1.532,3.727c-.239.124-.311-.077-.4-.217q-.768-1.245-1.471-2.528c-.256-.467-.583-.89-.82-1.369a.9.9,0,0,0-.529-.383c-.371-.149-.722-.341-1.082-.512-.134-.064-.327-.1-.315-.316a.187.187,0,0,0,.179-.09c.472.236.944.471,1.414.709a.828.828,0,0,0,.382.094,29.109,29.109,0,0,1,3.178.089c.257.156.512.318.773.466C832.883,373.623,832.985,373.707,832.967,373.878Z" transform="translate(-802.69 -359.011)" fill="#494c53"/>
  <path id="Path_17159" data-name="Path 17159" d="M874.114,276.79q2.33.986,4.66,1.972a2.958,2.958,0,0,0,1.33.247,8.406,8.406,0,0,1,1.05.1c.109.007.148.08.163.175-.1.24-.175.49-.293.719-.165.322-.49.24-.769.261a.591.591,0,0,1-.761-.519,1.3,1.3,0,0,0-1.01-.961c-1.354-.443-2.687-.945-4.031-1.419-.165-.058-.34-.086-.51-.128C873.821,277.018,873.845,276.857,874.114,276.79Z" transform="translate(-845.095 -273.033)" fill="#484b52"/>
  <path id="Path_17160" data-name="Path 17160" d="M851.7,273.246a.5.5,0,0,0-.172.445,14.71,14.71,0,0,0-1.108,2.453,2.874,2.874,0,0,1-1.381,1.523c-.06-.033-.034-.081,0-.1a5.467,5.467,0,0,0,1.591-2.652c.191-.462.355-.935.531-1.4a.949.949,0,0,0,.19-.439c.569,0,1.1-.235,1.682-.21Z" transform="translate(-822.677 -269.489)" fill="#0e1012"/>
  <path id="Path_17161" data-name="Path 17161" d="M967.531,355.005c-.987-.465-1.972-.934-2.92-1.477-.114-.065-.241-.11-.361-.164-.033-.066-.061-.126-.007-.2.3-.415.633-.815.893-1.256.326-.552.874-.367,1.332-.457a4.631,4.631,0,0,1,.882-.01c.05,1.082.194,2.155.325,3.229.016.131.02.263.03.394C967.618,355.134,967.584,355.04,967.531,355.005Z" transform="translate(-926.514 -340.294)" fill="#494c53"/>
  <path id="Path_17162" data-name="Path 17162" d="M997.81,387.709l.174.057q1.369,2.471,2.735,4.944a4.615,4.615,0,0,1,.2.487,1.545,1.545,0,0,1-.541-.626c-.78-1.458-1.556-2.919-2.436-4.321A.9.9,0,0,1,997.81,387.709Z" transform="translate(-956.793 -372.998)" fill="#0e1011"/>
  <path id="Path_17163" data-name="Path 17163" d="M1275.831,641.429q-.007-.388-.015-.777c0-.278.006-.556.009-.834,0-.13.043-.28.189-.212.594.277,1.3.2,1.853.593Z" transform="translate(-1207.345 -600.003)" fill="#494b52"/>
  <path id="Path_17164" data-name="Path 17164" d="M743.016,351.711a7.41,7.41,0,0,0,1.254.633,1.773,1.773,0,0,1,.932.805c.32.622.714,1.215,1.06,1.83s.722,1.215,1.079,1.825c.07.119.126.238.289.233a.78.78,0,0,0-.055.427c.178,1.286.34,2.573.509,3.86.023.174.069.346.082.521.008.109.052.248-.081.319s-.217-.009-.327-.064c-1.049-.525-2.108-1.029-3.192-1.478a.8.8,0,0,0-.218-.026,5.092,5.092,0,0,0-1.81-.645c-1.618-.451-3.248-.862-4.846-1.374a1.915,1.915,0,0,0-1.489.286c-.7.306-1.389.646-2.081.973-.083.039-.187.084-.248.02-.1-.1,0-.222.036-.325q.831-2.38,1.671-4.756c.6-1.678,1.209-3.349,1.788-5.032.134-.389.25-.467.649-.279C739.67,350.245,741.313,351.046,743.016,351.711Z" transform="translate(-718.886 -338.443)" fill="#36383d"/>
  <path id="Path_17165" data-name="Path 17165" d="M884.709,453.125c-.055.12.1.359-.1.364-.278.007-.277-.258-.256-.466.014-.142-.1-.4.139-.392C884.8,452.639,884.669,452.937,884.709,453.125Z" transform="translate(-854.528 -431.508)" fill="#0e1011"/>
  <path id="Path_17166" data-name="Path 17166" d="M1003.524,414.212c-.117-.2-.166-.4-.392-.486a.237.237,0,0,1-.061-.351c.1-.111.21.012.284.1C1003.531,413.672,1003.934,413.813,1003.524,414.212Z" transform="translate(-961.489 -396.09)" fill="#0e1011"/>
  <path id="Path_17167" data-name="Path 17167" d="M873.587,494.647c.362-.051.608-.051.7.266.025.084.017.213-.091.211C873.909,495.12,873.821,494.85,873.587,494.647Z" transform="translate(-844.838 -469.353)" fill="#0e1011"/>
  <path id="Path_17168" data-name="Path 17168" d="M901.482,473h.7c.063,0,.126.017.118.09s-.088.186-.123.15C901.977,473.028,901.675,473.264,901.482,473Z" transform="translate(-869.979 -449.866)" fill="#0e1011"/>
  <path id="Path_17169" data-name="Path 17169" d="M885.134,505.1a.19.19,0,0,1-.153-.221c.006-.085.047-.181.154-.184.152,0,.143.117.143.218S885.267,505.095,885.134,505.1Z" transform="translate(-855.107 -478.432)" fill="#0e1011"/>
  <path id="Path_17170" data-name="Path 17170" d="M884.623,411.073a.36.36,0,0,1,.226-.41c.069-.025.1.031.1.1C884.957,410.958,884.831,411.035,884.623,411.073Z" transform="translate(-854.784 -393.679)" fill="#0e1011"/>
  <path id="Path_17171" data-name="Path 17171" d="M989.636,454.447a1.252,1.252,0,0,1,.629-.263C990.077,454.415,989.942,454.537,989.636,454.447Z" transform="translate(-949.427 -432.908)" fill="#0e1011"/>
  <path id="Path_17172" data-name="Path 17172" d="M922.93,466a.129.129,0,0,1-.184.083c-.069-.026-.136-.075-.106-.161s.112-.077.183-.064A.12.12,0,0,1,922.93,466Z" transform="translate(-889.04 -443.419)" fill="#0e1011"/>
</svg>
