<svg xmlns="http://www.w3.org/2000/svg" width="40" height="40" viewBox="0 0 40 40">
  <g id="nameProfile" transform="translate(-76 -298)">
    <g id="Rectangle_1363" data-name="Rectangle 1363" transform="translate(76 298)" fill="#fff" stroke="rgba(0,73,83,0.4)" stroke-width="1">
      <rect width="40" height="40" rx="10" stroke="none"/>
      <rect x="0.5" y="0.5" width="39" height="39" rx="9.5" fill="none"/>
    </g>
    <path id="Icon_awesome-id-card-alt" data-name="Icon awesome-id-card-alt" d="M18.333,2.222h-5V5.556H6.667V2.222h-5A1.667,1.667,0,0,0,0,3.889V16.111a1.667,1.667,0,0,0,1.667,1.667H18.333A1.667,1.667,0,0,0,20,16.111V3.889A1.667,1.667,0,0,0,18.333,2.222ZM10,7.778A2.222,2.222,0,1,1,7.778,10,2.224,2.224,0,0,1,10,7.778Zm3.24,7.778H6.76a.548.548,0,0,1-.542-.687,2.223,2.223,0,0,1,2.115-1.535h.285a3.576,3.576,0,0,0,2.764,0h.285a2.225,2.225,0,0,1,2.115,1.535.548.548,0,0,1-.542.688ZM12.222,1.111A1.11,1.11,0,0,0,11.111,0H8.889A1.11,1.11,0,0,0,7.778,1.111V4.444h4.444Z" transform="translate(86 309)" fill="#004953"/>
  </g>
</svg>
