<svg xmlns="http://www.w3.org/2000/svg" width="18.426" height="20.371" viewBox="0 0 18.426 20.371">
  <path id="orders" d="M2894.868,68.3c0-1.388-.014-2.776.006-4.164a1.475,1.475,0,0,0-.822-1.438q-3.7-2.067-7.374-4.167a1.426,1.426,0,0,0-1.523,0q-3.682,2.093-7.374,4.166a1.5,1.5,0,0,0-.833,1.437q.012,4.112,0,8.224a1.5,1.5,0,0,0,.833,1.438q3.7,2.067,7.373,4.166a1.43,1.43,0,0,0,1.524,0q3.683-2.092,7.374-4.167a1.474,1.474,0,0,0,.822-1.438C2894.854,71.009,2894.868,69.656,2894.868,68.3Zm-9.089-8.864c.149-.085.264-.009.384.06q3.458,1.956,6.914,3.914c.025.014.037.05.087.119-.871.5-1.737,1-2.6,1.5a.309.309,0,0,1-.339-.017c-2.368-1.326-4.739-2.65-7.189-4.02C2884,60.447,2884.888,59.944,2885.779,59.438Zm-.389,16.979c0,.335-.075.392-.374.222q-3.316-1.888-6.644-3.756a.536.536,0,0,1-.324-.525c.011-2.565.007-5.131.009-7.7a1.7,1.7,0,0,1,.038-.212c2.41,1.345,4.765,2.662,7.124,3.97a.441.441,0,0,1,.244.458Q2885.417,72.647,2885.389,76.417Zm.409-8.911-7.066-3.968c-.012-.006-.012-.031-.035-.1,1.012-.573,2.007-1.134,3-1.7a.386.386,0,0,1,.431-.019q3.528,1.994,7.061,3.976c.013.007.018.029.048.081q-1.527.875-3.052,1.751A.353.353,0,0,1,2885.8,67.506Zm7.762,5.316q-3.487,1.957-6.969,3.921c-.011.006-.033-.006-.059-.012-.111-.11-.056-.256-.055-.385.018-2.427.047-4.854.055-7.282a.725.725,0,0,1,.421-.737c.953-.515,1.888-1.065,2.917-1.65,0,1.067,0,2.032,0,3a3.5,3.5,0,0,0,.018.519.53.53,0,0,0,1.054-.015c.028-.362.015-.727.016-1.091,0-.884,0-1.769,0-2.653,0-.186-.035-.375.182-.5.857-.479,1.708-.969,2.642-1.5,0,2.726,0,5.344,0,7.961A.421.421,0,0,1,2893.56,72.822Z" transform="translate(-2876.699 -58.065)" stroke="#000" stroke-width="0.5"/>
</svg>
