<svg xmlns="http://www.w3.org/2000/svg" width="40" height="40" viewBox="0 0 40 40">
  <g id="phoneProfile" transform="translate(-76 -298)">
    <g id="Rectangle_1363" data-name="Rectangle 1363" transform="translate(76 298)" fill="#fff" stroke="rgba(0,73,83,0.4)" stroke-width="1">
      <rect width="40" height="40" rx="10" stroke="none"/>
      <rect x="0.5" y="0.5" width="39" height="39" rx="9.5" fill="none"/>
    </g>
    <path id="Icon_awesome-phone-alt" data-name="Icon awesome-phone-alt" d="M19.43,14.133l-4.375-1.875a.938.938,0,0,0-1.094.27l-1.938,2.367A14.479,14.479,0,0,1,5.1,7.973L7.469,6.036a.935.935,0,0,0,.27-1.094L5.863.567A.944.944,0,0,0,4.789.024L.727.962A.938.938,0,0,0,0,1.875,18.123,18.123,0,0,0,18.125,20a.938.938,0,0,0,.914-.727l.938-4.063a.949.949,0,0,0-.547-1.078Z" transform="translate(86 308)" fill="#004953"/>
  </g>
</svg>
