<svg id="profilePic" xmlns="http://www.w3.org/2000/svg" width="47.33" height="47.33" viewBox="0 0 47.33 47.33">
  <g id="Group_5033" data-name="Group 5033" transform="translate(0 0)">
    <circle id="Ellipse_279" data-name="Ellipse 279" cx="23.665" cy="23.665" r="23.665" transform="translate(0 0)" fill="#969696"/>
  </g>
  <path id="Path_17088" data-name="Path 17088" d="M250.2,162.409a1.885,1.885,0,0,0-.2.762c-.2,1.078-1.235,1.767-2.183,2.32-3.107,1.815-6.216,3.6-9.252,5.518a23.649,23.649,0,0,0,36.315-.762l-7.876-4.081a19.283,19.283,0,0,0-1.884-.891,4.972,4.972,0,0,1-1.468-.712c-.65-.55-.493-1.436-.666-2.19a1.42,1.42,0,0,0-.228-.587c-.308-.388-.935-.368-1.277-.726a1.234,1.234,0,0,1-.275-.836,1.1,1.1,0,0,1,.1-.555c.108-.2.355-.3.526-.437s.369-.281.563-.414a2.439,2.439,0,0,0,.988-1.062,8.759,8.759,0,0,0,.552-2.243,8.107,8.107,0,0,1,.248-2.462c.325-.715,1-1.035,1.149-1.868a4.309,4.309,0,0,0-.287-2.286,4.49,4.49,0,0,0-.528-.763c-.193-.279-.068-.614-.028-.938a8.7,8.7,0,0,0-.293-2.9,6.7,6.7,0,0,0-.272-1,3.39,3.39,0,0,0-1.374-1.638c-.311-.193-.667-.28-.978-.462a9.05,9.05,0,0,0-1.065-.524A17.36,17.36,0,0,0,258,139.8a7.6,7.6,0,0,0-5.113.257,2.73,2.73,0,0,0-1.706,2.007,2.871,2.871,0,0,0-3.16,1.262,4.883,4.883,0,0,0-.552,2.759,25.562,25.562,0,0,0,.479,2.53,1,1,0,0,1-.068.706c-.112.17-.32.259-.425.433a.939.939,0,0,0-.1.435,5.224,5.224,0,0,0,.477,3.154,1.358,1.358,0,0,0,.3.345,3.338,3.338,0,0,0,.306.192,2.556,2.556,0,0,1,1.008,1.391c.169.516.142,1.053.275,1.567.107.419.244.877.395,1.288a2.115,2.115,0,0,0,.612.8c.263.254.422.546.8.653a2.034,2.034,0,0,0,.094.219,1.753,1.753,0,0,1,.1.618,2.085,2.085,0,0,1-.211,1.292C251.182,162.089,250.509,161.966,250.2,162.409Z" transform="translate(-232.742 -131.803)" fill="rgba(0,73,83,0.74)"/>
</svg>
