<svg xmlns="http://www.w3.org/2000/svg" width="10.703" height="9.84" viewBox="0 0 10.703 9.84">
  <g id="quality" transform="translate(-1.062 -2.337)">
    <path id="Path_17107" data-name="Path 17107" d="M4.966,12.5c.471.346,1.126-.463,1.71-.46s1.231.818,1.705.477-.092-1.214.091-1.768,1.158-.918.98-1.475S8.27,8.988,7.8,8.642,7.284,7.257,6.7,7.254,6.061,8.29,5.586,8.632s-1.477.062-1.66.617.788.927.966,1.484-.4,1.423.074,1.769Zm.515,1.419c.646-.222.989-.173,1.128.233s-.271.915-.916,1.137-1.242.189-1.335-.08.477-1.069,1.123-1.291Zm-1.782-.7c.609-.018.889.115.9.5s-.473.708-1.083.726-1.109-.168-1.117-.422S3.09,13.238,3.7,13.219Zm-.917-1.388c.524.127.731.306.651.635s-.569.494-1.093.367-.907-.4-.854-.621S2.259,11.7,2.783,11.832Z" transform="translate(-0.278 -3.26)"/>
    <path id="Path_17108" data-name="Path 17108" d="M2.44,6.972c.453.292.59.529.407.814s-.7.28-1.153-.012-.725-.678-.6-.867S1.987,6.68,2.44,6.972Zm.062-1.5c.3.348.36.575.142.766S2,6.3,1.7,5.954s-.435-.73-.291-.856.791.026,1.095.374Zm.579-1.381c.14.44.1.671-.175.759s-.614-.2-.754-.637-.108-.843.075-.9.715.339.855.779Zm.961-.7c-.08.345-.2.483-.414.432s-.328-.371-.248-.716.259-.6.4-.565.339.5.258.849Zm1.221-.179c-.282.215-.459.247-.594.07s-.017-.495.265-.71.581-.3.671-.179S5.545,3,5.263,3.211Z" transform="translate(0)" opacity="0.3"/>
    <path id="Path_17109" data-name="Path 17109" d="M18.261,22.865c-.646-.222-.989-.173-1.128.233s.271.915.916,1.137,1.242.189,1.335-.08-.477-1.069-1.123-1.291Zm1.782-.7c-.609-.018-.889.115-.9.5s.473.708,1.083.726,1.109-.168,1.117-.422S20.652,22.182,20.043,22.164Zm.917-1.388c-.524.127-.731.306-.651.635s.569.494,1.093.367.907-.4.854-.621-.772-.508-1.3-.381Z" transform="translate(-10.637 -12.205)"/>
    <path id="Path_17110" data-name="Path 17110" d="M22.455,6.972c-.453.292-.59.529-.407.814s.7.28,1.153-.012.725-.678.6-.867-.9-.227-1.349.065Zm-.062-1.5c-.3.348-.36.575-.142.766s.642.064.946-.284.435-.73.291-.856-.791.026-1.095.374Zm-.579-1.381c-.14.44-.1.671.175.759s.614-.2.754-.637.108-.843-.075-.9-.715.339-.855.779Zm-.961-.7c.08.345.2.483.414.432s.328-.371.248-.716-.259-.6-.4-.565-.339.5-.258.849Zm-1.221-.179c.282.215.459.247.594.07s.017-.495-.265-.71-.581-.3-.671-.179.06.6.342.82Z" transform="translate(-12.068 0)" opacity="0.3"/>
  </g>
</svg>
